<?xml version="1.0" standalone="no"?>
<!DOCTYPE svg PUBLIC "-//W3C//DTD SVG 1.1//EN" "http://www.w3.org/Graphics/SVG/1.1/DTD/svg11.dtd" >
<svg xmlns="http://www.w3.org/2000/svg">
<metadata></metadata>
<defs>
<font id="DesignerNotesRegular" horiz-adv-x="1024" >
<font-face units-per-em="2048" ascent="1638" descent="-410" />
<missing-glyph horiz-adv-x="716" />
<glyph horiz-adv-x="0" />
<glyph horiz-adv-x="2048" />
<glyph horiz-adv-x="3231" d="M1358 629q0 35 10 65.5t24 61.5q17 34 64 108q34 49 94 49t108 -11t86 -38q83 -57 83 -166q0 -47 -19.5 -79.5t-46.5 -73.5q-72 -115 -205 -115l-30 2h-21l-55 2q-4 0 -21.5 13.5t-24.5 20.5t-17.5 28.5t-16.5 47.5q-12 50 -12 85zM1470 644q0 -50 18.5 -66.5t63.5 -32.5 h9q59 0 95 61q30 52 25 115q-2 6 -14 24.5t-18 22.5q-12 4 -62.5 4t-83.5 -39t-33 -89z" />
<glyph unicode="&#xd;" />
<glyph horiz-adv-x="884" d="M84 -158l2 31q42 136 101 245t97 178t58 107.5t31.5 61t25 48.5t24.5 48.5t15 30.5l31 80q4 4 16.5 24.5t20.5 32.5t36.5 82t64.5 147q93 197 134 197q16 0 33 -12.5t17 -30.5v-4q0 -2 -1.5 -2t-6.5 -11t-32.5 -63.5t-57 -111t-57.5 -110.5t-41 -78t-26.5 -48t-26.5 -42 q-34 -53 -69 -100t-65.5 -123.5t-49 -113.5t-27.5 -53t-20.5 -34.5t-20.5 -36t-14 -21.5q-23 -41 -51 -93.5t-28 -84t9 -46t9 -31.5t-7 -37t-20 -37q-29 -40 -59.5 -40t-37.5 11t-7 40z" />
<glyph horiz-adv-x="858" d="M92 602q0 56 80 67q21 3 41 7v448q0 2 15.5 27t32 48.5t41.5 62.5q28 44 82 61q26 8 77 25h16q137 0 169 -147q9 -42 9 -73.5t-6 -42t-37.5 -10.5t-46 27.5t-22.5 61.5t-19.5 61.5t-42.5 27.5t-58.5 -21.5t-50.5 -51.5q-55 -71 -55 -119v-402h160l17 -30v-17 q-10 -2 -41 -7t-41 -9q-16 -6 -53.5 -15t-57.5 -16l-25 -65v-480q0 -29 -19 -47t-36.5 -18t-30 1t-16.5 17v38l-2 115v38l12 393q-16 0 -32.5 -2t-29.5 0q-30 5 -30 47zM477 53q0 23 19.5 33t42 18.5t42 18.5t19.5 35v608q0 5 12 40l13 40q0 2 6 8t10 6h6q28 0 51 -20.5 t23 -26.5v-672q0 -24 51 -65q10 -8 12 -12q3 -7 -16 -35q-29 -35 -65.5 -41t-79.5 -6h-15l-16 16q-12 4 -31.5 5t-38.5 5q-45 10 -45 45z" />
<glyph horiz-adv-x="935" d="M70 616q0 56 78 67q22 3 42 7v449q0 2 15.5 26.5t32 48t40.5 62.5q29 45 84 61q13 4 28.5 9.5t28.5 9.5t19 6h17q135 0 169 -146q9 -42 9 -74t-6 -42t-38 -10t-46.5 27.5t-22.5 61t-19.5 61.5t-42 28t-58 -21.5t-50.5 -52.5q-55 -72 -55 -119v-401h160q1 0 16 -31v-16 q-10 -2 -41 -7.5t-41 -9.5q-17 -7 -53.5 -15.5t-56.5 -14.5l-25 -66v-479q0 -29 -19.5 -47.5t-37 -18.5t-29.5 1.5t-14 14.5t-2 41l-2 114v38l12 393q-16 0 -32.5 -2t-29.5 0q-30 4 -30 47zM553 1198q0 22 59 70q110 92 127 92h9q2 0 24.5 -11.5t22.5 -21.5l16 -192v-992 q-10 -29 -12 -58.5t-7 -56.5q-13 -61 -77 -77q-2 1 -64 63v6l-2 11q0 20 17.5 28.5t17.5 26.5v8l-33 33l-4 115v28q0 119 30 271.5t43 237.5t13 171l-2 74q0 22 -5 68.5t-7 72t-4 33.5h-17l-94 -31l-16 -2q-35 0 -35 33z" />
<glyph unicode=" "  horiz-adv-x="716" />
<glyph unicode="&#x09;" horiz-adv-x="716" />
<glyph unicode="&#xa0;" horiz-adv-x="716" />
<glyph unicode="!" horiz-adv-x="391" d="M82 122.5q0 61.5 35 90.5t90 29t78.5 -39t23.5 -72.5t-9 -57.5t-26 -45q-38 -44 -88 -44h-6q-59 25 -78.5 51t-19.5 87.5zM131 383v913q0 6 12.5 31t20.5 33q0 4 15.5 4t15.5 -4q32 -181 32 -457l-16 -401q0 -39 8 -76t8 -64q0 -59 -41 -59q-55 0 -55 80z" />
<glyph unicode="&#x22;" horiz-adv-x="407" d="M0 1434h156q0 -167 -39 -289q-4 -16 -18.5 -17.5t-29.5 -1.5t-21.5 4.5t-14.5 45.5q-33 167 -33 258zM240 1434h168v-22l-5 -91q-2 -47 -2 -99.5t-19 -80t-23.5 -29.5t-20.5 -2q-28 0 -45 35q-2 12 -10.5 44t-15.5 67.5t-14 67.5t-9 42q-4 20 -4 68z" />
<glyph unicode="#" horiz-adv-x="1112" d="M-57 340v8q0 6 15 21.5t19 15.5h256l7 6l8 8q6 12 19.5 38t25.5 51.5t22.5 46t12.5 25.5q9 21 16 81l-2 31h-14l-191 -17q-80 0 -80 58v8q2 4 14.5 16.5t16.5 14.5q150 -8 305 16q4 8 15.5 32.5t15.5 30.5l16 50q2 4 9.5 15t15.5 24.5t15 25.5t11 21.5t9.5 32t13.5 42.5 q20 48 61 48q25 0 34 -9.5t9 -30.5t-15 -50t-33 -62q-48 -91 -48 -135l48 -2h99.5t43.5 2q27 6 46 49t38.5 93t41 93t50.5 49q18 6 33.5 -13t15.5 -35.5t-10 -38t-22 -46.5q-32 -69 -32 -112h175q18 0 18 -33q0 -25 -15 -45q-27 -39 -51 -35q-6 2 -19 2t-17 4h-58 q-35 0 -52 -3t-33.5 -11t-21.5 -14.5t-7 -10.5l-9 -19q-8 -15 -15 -33q-9 -22 -17.5 -39t-15.5 -35.5t-15 -39.5q-21 -57 -24 -65t2.5 -30.5t5.5 -31.5l104 -4q39 2 68 11q51 14 102 14q80 0 80 -57q0 -20 -15.5 -31.5t-38 -11.5t-46 10t-52.5 10l-41 -2q-39 -4 -101.5 -10 t-100.5 -13q-72 -35 -72 -229q-41 0 -49 14.5t-8 51.5t10 68.5t10 54t-2 29.5t-16 11l-88 3h-78q-33 0 -74 -17q-20 -8 -34.5 -50t-28 -88t-27.5 -83t-37 -37q-33 0 -33 31q0 99 64 194l-17 25h-207q-4 0 -16 15q-18 24 -18 28zM328 416l16 -17q10 -3 52 -6.5t63.5 -5.5 t40.5 -2q95 0 116 47q6 6 17 45q22 74 29.5 97.5t14.5 37t12 26.5q11 29 11 62l-136 5q-100 0 -107 -17l-129 -256v-16z" />
<glyph unicode="$" horiz-adv-x="733" d="M29 442q0 12 12 34t29 22l8 -2q21 -11 19.5 -34.5t-3.5 -37.5t-2 -20.5t7 -19.5t10 -15q12 -35 20 -61.5t21 -47.5q25 -42 88 -67q2 2 8 7t8 9q29 90 36 198.5t11 200.5h-18v10q0 5 2 7l16 16q2 2 2 4v4l-2 6q-118 90 -176 193q-17 17 -33 49q2 10 6 18t6 16.5t5 12.5 q35 82 86 118t139 42v192q0 25 10 29t24 4h28q14 0 18 -16l-2 -81l2 -79q4 -78 128 -212q62 -68 62 -93q2 -2 2 -4v-4q0 -18 -15.5 -29.5t-40 -11.5t-34.5 12t-12 28.5t-5 33t-22 24.5l-16 -16v-17q0 -21 5 -68.5t7 -72.5t4 -35q101 -92 133 -150q60 -107 60 -227v-86 q-11 -44 -94 -87q-75 -37 -132 -42q-9 -98 -74 -146q-22 -16 -42.5 -16t-40 2.5t-19.5 24.5v8l17 64q0 73 -61 96q-27 10 -58 19q-71 22 -98 79q-39 84 -39 215zM203 905q0 -40 21 -74q41 -65 77 -65l16 2l17 209v37q-55 0 -93 -21.5t-38 -87.5zM397 592h17v16h-17v-16z M406 768q0 -39 7 -32t7 32t-5 31t-7 -5.5t-2 -25.5zM444 292.5q0 -45.5 5.5 -66.5t43 -21t67.5 34.5t30 71.5t-6 74t-20 74q-35 89 -87 102q-4 -66 -18.5 -144.5t-14.5 -124z" />
<glyph unicode="%" horiz-adv-x="1247" d="M31 801v160l16 110q10 19 42 46.5t41 35.5t29.5 21.5t40.5 26.5q51 32 56 32h223q5 0 33 -27q60 -57 70 -78.5t18 -37t15.5 -29.5t9.5 -21v-22q0 -102 -93 -192q-37 -36 -78.5 -57t-72.5 -37q-69 -34 -94 -44h-23l-33 -2q-74 0 -119.5 23.5t-80.5 91.5zM62 80 q-1 10 40 65.5t94.5 119t103.5 120.5t64.5 75.5t35 43t41 50.5t37 46.5t18.5 24.5t9 15t14 24q14 28 34 57t23 32t14.5 14t26 24.5t25.5 25.5t21 24.5t53.5 69t92.5 121.5q113 149 142.5 189.5t66.5 43.5t67 3q0 -4 -5 -24.5t-8 -24.5t-12 -14.5t-20 -20.5 q-27 -23 -32.5 -32t-25 -35.5t-46.5 -63.5t-56.5 -77t-55 -77t-46 -63.5t-25.5 -33.5t-21.5 -23.5t-36 -35t-35.5 -35.5l-21 -20q-25 -37 -49 -77q-54 -87 -74.5 -116.5t-60 -70.5t-72.5 -88l-31 -64l-16 -16q-6 -8 -29.5 -38t-50.5 -66q-63 -82 -80 -105q-40 -40 -63 -31 q-14 7 -50 47v5q0 2 -1 12zM127 864q0 -25 21 -40q34 -25 70 -25t89 17.5t99 49.5q106 71 106 174q0 49 -76 88q-18 9 -51 9q-116 0 -178 -50q-6 -6 -17.5 -15t-21.5 -20q-25 -26 -25 -28zM608 353.5q0 93.5 90.5 214t171.5 120.5q155 0 226 -42q54 -31 69 -93 q21 -87 21 -127.5t-1 -77.5t-11.5 -51t-23.5 -28.5t-28 -30.5q-36 -35 -51.5 -46t-48.5 -21.5t-70 -16.5q-71 -13 -131 -13q-102 0 -157.5 59.5t-55.5 153zM719 289q16 -35 54 -42t75 -7t82 10t80 32q80 50 80 142t-50.5 131t-138.5 39q-42 0 -109 -70q-69 -71 -73 -108 v-127z" />
<glyph unicode="&#x26;" horiz-adv-x="1009" d="M2 270v68q0 39 18 68l197 286q2 2 2 4v6q-8 30 -32.5 69.5t-40.5 75.5q-38 83 -33.5 159.5t38 158.5t89.5 145q126 138 301 138q186 0 222 -160q11 -49 11 -103t-21.5 -102.5t-52.5 -94.5q-54 -78 -141 -152l-42 -36q-120 -103 -120 -145v-18q9 -13 22 -36t21.5 -35.5 t12.5 -17.5t20 -22.5t37 -37.5q64 -65 93.5 -86t54.5 -40q64 -49 77.5 -49t35.5 28t41 63q55 99 69 110q16 8 30 18.5t25 16.5l72 -72l-12 -25q-18 -42 -51.5 -104.5t-45.5 -85.5l-35 -53v-8l-2 -11q0 -29 23.5 -46t51.5 -34.5t50.5 -38t22.5 -53.5v-4q0 -5 -26 -13.5 t-44.5 -5.5t-39.5 20.5t-40 36.5q-50 50 -86.5 50t-71 -22.5t-62.5 -37.5t-66.5 -36.5t-79.5 -39.5q-96 -44 -168 -44h-19q-141 35 -223 114.5t-82 233.5zM143 250q0 -86 37 -137.5t131 -51.5q52 0 149 40q191 79 191 126v11q0 4 -2 6q0 2 -7 8t-15.5 15t-17.5 17.5 t-19 18.5t-51 46t-87 76q-145 126 -149 126h-6q-23 0 -67 -71q-9 -15 -14 -25t-17.5 -33t-22.5 -45.5t-19.5 -40t-9.5 -19.5zM236 995q2 -12 4 -32.5t5 -40t6 -34t4 -19.5t6 -18t11 -23q17 -27 19 -27h16q49 43 109.5 87t111.5 94q121 117 121 247q0 41 -25.5 75.5 t-74.5 34.5t-107.5 -30.5t-103.5 -77.5q-102 -107 -102 -225v-11z" />
<glyph unicode="'" horiz-adv-x="262" d="M70 967l6 114l4 147v38l6 84h127l-20 -121q-9 -51 -14 -155.5t-9 -119t-23.5 -11.5t-25.5 3h-13q-4 0 -28 -6q-10 10 -10 27z" />
<glyph unicode="(" horiz-adv-x="393" d="M25 633q0 80 16 153.5t26.5 124.5t15.5 64.5t11 25t13.5 23.5t15.5 33l31 96q2 4 8 15.5t16 28t36 57t56 78.5q75 93 144 93q18 0 31.5 -2t13.5 -29.5t-25.5 -40t-35 -20.5t-19.5 -20.5t-21 -24.5q-21 -24 -28 -39q-2 -4 0 -16t1 -15t-9 -10l-15 -16q-8 -8 -15 -14.5 t-9 -8.5q-146 -199 -146 -530q0 -82 19 -178q36 -174 77 -236q16 -25 59.5 -72t87.5 -97q112 -127 112 -158v-24q0 -17 -17 -17q-5 0 -52 28.5t-105 70.5t-99 110q-2 4 -12 20t-21 34q-20 31 -32 56q-2 4 -16.5 16.5t-14.5 16.5l-17 63q0 4 1.5 24.5t-5 40.5t-31 62.5 t-26.5 64t-2 32.5v65l-16 31z" />
<glyph unicode=")" horiz-adv-x="331" d="M-61 1305q0 26 32 26t54 -13t41 -32q32 -29 73 -75.5t90.5 -105t88 -122t63.5 -133.5t25 -160t-33 -274q0 -2 -7.5 -15.5t-9.5 -16.5t-6 -22.5t-10 -41t-10 -40t-8 -33t-18.5 -56t-33 -92t-42 -102.5t-48.5 -94q-59 -96 -102 -96q-20 0 -31.5 5t-11.5 26.5t9 36t22.5 27 t28 24t22.5 27.5q86 154 138 337t52 359q0 193 -149 380q-43 54 -67.5 82t-32 37t-14.5 20q-16 27 -24 32q-9 13 -31 39q-42 48 -48 57z" />
<glyph unicode="*" horiz-adv-x="524" d="M-51 1183.5q-6 24.5 1 36t18 18.5q28 17 50.5 17t42 -11t37 -27.5l35 -33t43.5 -26.5l45 10v187l66 -4q8 -2 19 -9.5t11 -9.5v-174q13 -8 29 -16h4l6 -2q2 0 2 1t2 1h5l133 114h22q25 0 40 -7t15 -39.5t-29.5 -59.5t-66.5 -50.5t-66.5 -51t-29.5 -70.5v-10l25 -25 q20 -20 41.5 -40.5t40.5 -39.5l26 -26q4 -4 22 -14q32 -20 37 -25q0 -2 -8 -16.5t-15 -27.5t-16.5 -13.5t-31.5 -0.5q-30 0 -60 27t-47.5 39t-40.5 12h-10q-6 -2 -13 -9t-7 -11v-150q0 -22 -43 -22t-53.5 26.5t-12.5 59t-3 59.5t-19 27t-31.5 -9.5t-27.5 -19.5 q-43 -29 -64 -29q-52 0 -52 29l3 6v4l170 209q-23 29 -62 51.5t-77 46t-68.5 49t-36.5 50z" />
<glyph unicode="+" horiz-adv-x="659" d="M-47 625v90h332v346q0 16 19.5 17t29.5 1t24.5 -1t21.5 -28.5t11 -72.5t6 -91q3 -74 -2 -171l19 -17h258q4 0 18.5 -14t18.5 -22v-17q0 -12 -7 -35q-14 -41 -30 -41h-277q-9 0 -18 -18q-47 -183 -39 -344q-4 -18 -18.5 -19.5t-28.5 -1.5q-48 0 -44 68q1 19 1 54.5t10 90 t10 98.5t-6 57t-18 20q-15 9 -70 14l-74 20l-55 -2h-35q-16 0 -23 1t-20.5 7.5t-13.5 10.5z" />
<glyph unicode="," horiz-adv-x="235" d="M-80 -197q0 38 24 47q11 5 25.5 7t27.5 8t24.5 17.5t21.5 24.5q25 33 25 48v6q0 2 -12.5 13.5t-28 20.5t-25.5 19q-18 19 -18 84.5t43 99t102 54.5h25q59 0 82 -102q6 -25 6 -44v-16q-34 -170 -129 -303q-16 -25 -42 -29t-55 -4q-96 0 -96 49zM86 125q0 -35 11 -35 t11.5 16.5t-12.5 16.5l2 37q-12 0 -12 -35z" />
<glyph unicode="-" horiz-adv-x="755" d="M0 524q0 31 49 47h21l70 2h50l68 -2h16l111 -32l68 -2h48q31 0 86 9t87 25h24q58 0 58 -41q0 -88 -226 -88h-32l-64 17h-129l-112 16q-55 0 -95.5 1t-69 9t-28.5 39z" />
<glyph unicode="." horiz-adv-x="219" d="M0 72v8q24 82 46 110q42 52 116 52h8q8 0 29.5 -22.5t23.5 -26.5l2 -52q0 -143 -129 -143q-31 0 -63.5 16.5t-32.5 57.5z" />
<glyph unicode="/" horiz-adv-x="552" d="M-45 21q0 14 3 23t7 19.5t10 26.5q26 122 80 245.5t87.5 194t50 111.5t25.5 64.5t19.5 50t19.5 50t13 32.5l23 82q4 4 14 26.5t15 26.5q6 14 18 52t28.5 88t36 104.5t39.5 100.5q43 103 76 107q16 2 33.5 -8t19.5 -28v-5q0 -2 -1 -2t-5 -12.5t-26.5 -66.5t-47 -115.5 t-46 -115.5t-32.5 -80t-22.5 -50t-23 -44.5t-22.5 -41t-40 -67t-52.5 -127t-37.5 -118.5t-19 -52.5t-10 -31.5l-11 -31q-5 -15 -7 -19q-66 -123 -61 -168q0 -20 -19.5 -71.5t-25.5 -64.5t-10.5 -31t-9.5 -31q-12 -31 -38 -34q-16 -2 -25.5 -4t-14.5 -1q-11 2 -11 16z" />
<glyph unicode="0" horiz-adv-x="1052" d="M20 430q0 118 26 204.5t56 180.5l17 66q4 6 14 28.5t23 48.5q26 54 34.5 69t14.5 20.5t31.5 28t69.5 60.5t91 66q101 62 219 62h15q5 0 34 -15.5t43.5 -22.5t19.5 -9t18.5 -7.5t29 -10.5t28.5 -9t19 -6q17 13 41.5 64.5t41 71t40.5 19.5q37 0 37 -63q0 -45 -15.5 -69.5 t-26.5 -41t-21 -45.5q4 -8 13 -28.5t19 -43.5q31 -64 36 -92t11.5 -52.5t10.5 -45.5q6 -28 20 -57v-23l2 -74v-24q0 -255 -54 -410q-68 -196 -251 -317q-57 -39 -119.5 -77t-136.5 -38t-133 26.5t-123 72.5h-8q-27 0 -38 -23t-19.5 -48.5t-21.5 -48t-42 -22.5t-33 16.5 t-4 46.5t11.5 48t24.5 32.5t24.5 32t11.5 49.5t-11.5 56t-24.5 49t-26.5 49.5t-23.5 69.5q-15 68 -15 186zM133 401q0 -124 39 -211q14 -32 35 -32q2 0 2 1t2 1h4q10 6 18 20t31 51t51.5 85.5t59.5 99.5t59.5 99t51 85t53 89t91 139t97.5 180l2 24q0 71 -119 91q-30 5 -51 5 q0 -47 -29.5 -62t-69.5 -23.5t-82 -22.5t-70 -64t-59.5 -120t-56.5 -145q-59 -172 -59 -290zM262 55q0 -35 82 -71q74 -33 117 -33t90 21.5t88 53.5q78 63 135 150q4 4 9 24q6 23 18 34.5t22.5 21.5t19.5 20.5t12 13.5t8 21.5t11 40.5q13 52 13 64q33 121 33 268t-80 277h-9 q-17 0 -35 -25q-33 -45 -35.5 -52t-10 -21.5t-15.5 -31t-15 -30t-10 -18.5t-19.5 -28.5t-36 -51t-36 -50t-24.5 -35.5t-35 -57.5t-59.5 -99.5t-69.5 -115.5t-69.5 -116t-59.5 -99.5t-39 -67v-8zM576 1032q0 10 7 8t7 -7t-6 -9q-8 -2 -8 8z" />
<glyph unicode="1" horiz-adv-x="747" d="M20 949q0 21 10.5 35.5t26 26t31.5 21.5t24 18q21 21 21 37l96 97q28 -9 89 42q24 19 46.5 37.5t47.5 18.5t43 -35v-127q0 -96 -15 -185q-18 -114 -18 -226l-2 -193v-148l2 -192v-63q36 -23 96 -23h94q78 0 82 -26q2 -13 2 -25q0 -55 -18 -55h-576q-16 0 -17 17.5 t-1 23.5t1 22t17 16h193q8 59 31 113v28l2 86v67l-2 89v19l-17 63v15q0 84 17.5 163.5t17.5 163.5l-2 41q0 8 -16 26q-31 32 -32 37t-1 16v26l2 41q0 4 -6 9t-10 5l-51 -51t-39.5 -38t-30.5 -30l-36 -36q-22 -21 -48.5 -21t-40 16.5t-13.5 37.5zM166 1167h16v-16z" />
<glyph unicode="2" horiz-adv-x="923" d="M23 16v23q0 114 88 225q39 49 84 95.5t127 132.5t194.5 210.5t210.5 274.5q4 6 8 19.5t9.5 27.5t9.5 27.5t6 19.5l2 19q0 29 -28.5 45t-41.5 16h-26l-64 2h-27q-167 0 -264 -66q-23 -14 -49 -41.5t-54 -53.5q-69 -66 -95 -66l-7 2h-2q-10 8 -28.5 26.5t-20.5 21.5 t5.5 15.5t28 36t74.5 70.5t117 85q145 88 257 81q14 0 50 -4.5t77 -9.5t77.5 -10t51.5 -7q35 -31 57 -57.5t22 -74.5t-20.5 -98.5t-50 -99.5t-63 -95t-58.5 -87l-465 -465q-10 -20 -19 -32q-17 -27 -24 -41q-16 -39 -37 -70q16 -16 41 -17.5t83 -1.5t118 19l63 30q2 2 6 2 h19l39 -18q119 -23 154 -33q69 -19 149 -78q14 -10 16 -13t2 -22.5t-12 -38t-37 -22.5q-54 33 -117 62.5t-75 33.5l-62 2q-88 0 -173 -17t-147 -17q-179 0 -179 32z" />
<glyph unicode="3" horiz-adv-x="860" d="M45 1014q0 91 177 194q96 57 152 64.5t98 7.5t93 -12.5t95 -37.5q102 -55 102 -155q0 -149 -49 -244q-12 -12 -27.5 -37.5t-26 -40t-12.5 -18.5v-6l-2 -8l2 -10v-6q88 -79 115 -125q47 -81 47 -167t-23.5 -159.5t-67.5 -133.5q-99 -136 -255 -136q-105 0 -202 42t-144 82 t-47 93q0 2 1 2t1 2v4q4 6 14 15t20 20q15 14 29 28l23 2q48 0 53 -40q2 -17 0 -36.5t4 -35.5t38 -28.5t69 -21.5q70 -16 120.5 -16t91.5 12.5t70 37.5q51 45 76 157l16 66v30q0 59 -10 98.5t-55 77.5q-6 4 -15.5 12.5t-19.5 16.5q-26 21 -29 21h-35q-41 0 -81.5 -16.5 t-69.5 -16.5t-50.5 12t-21.5 38t24.5 41t57.5 26.5t65.5 20.5t49 23.5t40 36t44.5 46.5q50 56 57 108v64l17 49q0 80 -113 127l-75 4h-44l-72 -4q-47 -8 -83.5 -36t-72.5 -57.5t-74 -53t-85 -23.5z" />
<glyph unicode="4" horiz-adv-x="989" d="M20 498q0 20 5 30q95 124 190 207l33 17q13 13 37 45t26 34l17 17q10 12 47 56t80 95.5t81 96.5q90 108 139 148q96 77 152 77q0 -56 -59 -122q-25 -28 -49.5 -55.5t-43 -64.5t-29.5 -88t-15 -105.5t-4 -107.5v-100l2 -74l2 -59l16 -17q4 -4 95.5 -17t112.5 -15t42 1 t36 2q36 -2 36 -42l-2 -25q-4 -2 -15.5 -4t-23.5 -5q-30 -7 -42.5 -7t-46.5 4t-73 9q-80 10 -119 20l-31 -17q-6 -68 -11 -126t-11 -114.5t-10 -95.5v-16q8 -2 28.5 -6t44 -9.5t43.5 -10.5l48 -12t36 -12q41 -17 41 -36.5t-16 -30t-33 -10.5l-153 14q-68 0 -134.5 -15 t-138.5 -15q-24 0 -24 27.5t20.5 38.5t47 17.5t53 14.5t40.5 28q2 16 7.5 59.5t10.5 92.5t9 92t6 62v80q-4 4 -28.5 10t-36.5 6h-400q-25 0 -30 11t-5 22zM168 545h336q9 0 14 10q7 16 19 53l14 287l2 49h-16q-180 -199 -369 -385v-14z" />
<glyph unicode="5" horiz-adv-x="1036" d="M51 762v22q2 4 16.5 23.5t25.5 44t10 75t-1 79.5v50l-2 78v17l-16 66q0 23 26.5 44t42 21t24.5 -5t19 -13q22 -17 52.5 -17t58 8.5t58.5 8.5h8l96 -17h287l96 33l96 16q34 17 47 17q19 0 19 -39v-10q0 -62 -84 -73q-23 -3 -75 -10t-134 -11.5t-165 -5.5q-223 -3 -329 -13 q-2 0 -8 -6q-22 -22 -22 -88v-27l4 -100q39 0 96 22q110 41 156 41h18q70 0 183.5 -34.5t173.5 -84.5q122 -102 122 -329q0 -135 -20 -197q-37 -109 -158 -221q-92 -80 -193.5 -104.5t-234.5 -24.5t-198.5 77t-65.5 218q0 55 4 59l47 47q23 -41 27 -82t10 -77.5t24 -69.5 q25 -44 115 -74h17q14 2 51 6t77 9.5t76.5 9.5t51.5 6q238 105 277 334q13 76 13 168v16q0 34 -66 109q-42 49 -86 84q-79 61 -245 61l-70 -4q-6 0 -39.5 -15.5t-50 -22.5t-20.5 -9t-25 -7q-37 -9 -58.5 -40t-36.5 -51q-37 -48 -91 -48q-23 0 -27 20.5t-4 39.5z" />
<glyph unicode="6" horiz-adv-x="1007" d="M20 384v24q0 164 52.5 293.5t119 225t117.5 154t113 102.5q138 99 285 99h12q4 0 8 -2l160 -80q20 -10 20 -74v-16q-39 0 -63.5 22.5t-41 35t-42.5 16.5l-76 2h-22l-52 -2h-10q-8 0 -50 -26t-103.5 -67.5t-102.5 -99.5q-10 -14 -35.5 -53t-54.5 -82q-72 -106 -86 -135 q-66 -181 -66 -313q0 -70 29 -134.5t56.5 -94t60.5 -29.5v219q4 4 15 22.5t36 59.5t63.5 90t85.5 79q82 52 257 52q88 0 162.5 -40t115.5 -120l4 -80l-4 -80q0 -2 -4 -10l-9 -18q-13 -28 -20 -35q-102 -147 -231 -234.5t-313 -87.5q-126 0 -234 103q-73 70 -149 219v23z M358 113l33 -66h6q179 0 283 80q43 36 112.5 108t83.5 93q29 42 29 104t-25.5 89.5t-62.5 42.5q-66 28 -146.5 28t-154.5 -40t-108 -103q-18 -30 -27.5 -51t-22.5 -46v-239z" />
<glyph unicode="7" horiz-adv-x="1007" d="M23 961l16 335q2 16 18.5 16.5t20.5 0.5h24l50 -33q26 -4 43.5 -7t36 -5t30.5 -4h17l176 16h448l96 16h9q41 0 41 -57l-2 -22q-68 -96 -145 -183.5t-137 -176.5t-110.5 -170t-113 -174.5t-127.5 -205.5q-74 -129 -90 -267q-2 -17 -6 -36q-7 -42 -8 -63.5t-1 -35.5t-3 -21 q-6 -13 -46 -13q-63 0 -63 47q0 53 16 100.5t25.5 73t16.5 45t15.5 41t15.5 40t34 78.5q43 97 215 376q4 8 21 33.5t38 56.5q51 77 70 102q43 66 87 127.5t67 96.5q38 57 38 67v10q0 2 -2 2l-63 33h-193q-2 -4 -14.5 -10t-17.5 -6h-144l-207 -17l-63 17q-6 2 -21.5 0 t-19.5 -2v-271q0 -16 -31 -16t-45.5 21.5t-11.5 44.5zM874.5 1183.5q-0.5 -16.5 12.5 -16.5q12 0 12 16.5t-12 16.5t-12.5 -16.5z" />
<glyph unicode="8" horiz-adv-x="847" d="M41 352v80q5 5 33 47q33 57 67.5 99.5t91.5 76.5v17q-2 4 -7 16t-8 16.5t-15.5 15.5t-26.5 24.5t-25.5 24.5t-13.5 15q-17 82 -21.5 113t-9.5 47v8q0 346 420 346q116 0 190 -109q63 -95 71 -126t8 -75q0 -97 -66 -204q-16 -27 -40.5 -52t-24.5 -60l2 -17 q68 -63 114.5 -150t46.5 -179l-2 -54q-24 -48 -30 -63q-75 -126 -167 -171q-81 -40 -241 -40l-57 2q-141 27 -215 119t-74 233zM121 295q0 -96 103 -153q85 -48 186 -48l63 2q6 14 26.5 17.5t33 5.5t29 13t49 33.5t63.5 48.5q74 62 74 115q0 81 -66 167q-8 10 -22.5 28.5 t-30 36t-27.5 31.5t-16 17t-18.5 8.5t-33 9.5t-36 8t-25.5 4q-41 4 -84 -19q-147 -81 -207.5 -152t-60.5 -173zM215 892l2 -48v-13l16 -30q18 -18 59.5 -31.5t65.5 -20.5q50 -14 156 -14h39q56 37 93 92q69 99 69 164q0 25 -1 34t-16.5 34t-32 50.5t-35.5 46.5 q-45 46 -101 46q-75 0 -199 -35q-72 -17 -100 -106q-15 -50 -15 -103v-66z" />
<glyph unicode="9" horiz-adv-x="944" d="M41 941q0 52 26.5 103.5t67.5 94.5q75 78 195 125q47 18 82 18h148t96 -13t51 -22.5t29.5 -19.5t26.5 -24.5t23.5 -27t23.5 -32t19 -27.5t21.5 -13t32 -10.5t29 -12.5t12.5 -23l-2 -17q0 -4 -14.5 -16t-17.5 -18t-3 -30t4 -32q-10 -18 -32.5 -64t-48.5 -96 q-80 -156 -91 -191q-17 -57 -23 -70t-29.5 -55t-48.5 -88q-60 -113 -70.5 -128.5t-31 -43.5t-46.5 -64q-59 -81 -83 -114.5t-37.5 -55t-39.5 -21.5t-44 13t-18 36l2 8v6q2 4 12 15.5t20 24.5q25 32 30 38t12.5 20.5t14.5 30t14 29.5t10 18.5t24 24t25 25.5t15 30.5t14 29.5 t1 25.5t0 24.5t15.5 16.5t17.5 14.5q0 5 9 22t19.5 37.5t22.5 41.5q29 50 29 61q4 8 15.5 27.5t24.5 43t24.5 44t16.5 30.5l18 35q12 25 12 27l2 24q0 2 -1 11.5t-1 13.5q-82 -45 -155 -72t-164 -27t-153.5 37t-119.5 109q-33 41 -33 93zM137 938q0 -72 88 -116 q75 -38 144 -38t125.5 22.5t105.5 61.5q103 82 145 189v14q0 6 -6 17.5t-10 16.5t-17.5 19.5t-28.5 29.5l-29 28q-13 14 -19 18l-17 2h-10l-37 -18h-129q-5 0 -32 -9.5t-41.5 -14.5t-37 -14t-59 -27.5t-67.5 -42.5q-68 -54 -68 -138z" />
<glyph unicode=":" horiz-adv-x="270" d="M35 756q0 41 24.5 67.5t53 26.5t47 -2t34.5 -8q37 -13 37 -63t-36.5 -88t-78.5 -38t-61.5 32t-19.5 73zM51 175q0 44 13.5 64.5t50.5 20.5q116 0 116 -100q0 -47 -24.5 -73t-68.5 -26t-65.5 35t-21.5 79z" />
<glyph unicode=";" horiz-adv-x="348" d="M45 61v7q0 108 61 144q23 13 63 13t72.5 -36.5t52.5 -88.5q38 -104 38 -172.5t-12.5 -109.5t-35.5 -74q-53 -74 -141 -74q-31 0 -47 9.5t-16 43.5t19.5 52t44 34.5t44 37t19.5 52.5t-18.5 48t-44 30.5t-53.5 33t-46 50.5zM45 693q0 44 21.5 79t68.5 35q127 0 127 -98 q0 -47 -29.5 -73t-72.5 -26t-79 19.5t-36 63.5z" />
<glyph unicode="&#x3c;" horiz-adv-x="614" d="M-47 354v8q0 22 26.5 31.5t34.5 19t27.5 31t40.5 46.5q92 104 260 276q96 100 221 178q4 4 15.5 9t14.5 7.5t5 2.5h10q4 0 19.5 -15.5t17.5 -24.5t-5 -23.5t-18 -27.5q-18 -18 -32 -29t-28.5 -23.5t-31.5 -27.5q-38 -34 -47 -38q-78 -78 -150 -144q-97 -89 -186 -178 q-16 -4 -41.5 -20.5t-25.5 -36t51 -39.5l80 -14q28 -14 47 -33q4 -2 15.5 -6t24.5 -10.5t25.5 -10.5t19.5 -8t30.5 -16.5t46.5 -25.5q60 -33 66.5 -38.5t30.5 -27t49 -46.5q58 -58 77 -84q6 -2 30.5 -7t38 -10t13.5 -23v-31q0 -23 -3 -40.5t-24 -17.5q-35 0 -51 14.5t-45 44 t-62.5 63.5t-63.5 62.5t-43 41t-34.5 25t-45 22.5t-45 18t-34 13.5t-33 13.5t-39.5 16q-68 28 -109.5 31.5t-70.5 11.5q-69 19 -69 90z" />
<glyph unicode="=" horiz-adv-x="790" d="M-51 608v19q0 61 119 48q28 -3 43 -3l96 16h31q61 0 122.5 -9t120.5 -9l27 2h18l49 16q4 0 16.5 -6t14.5 -10h209q4 0 16.5 -12.5t16.5 -18.5v-75q0 -21 -23 -21h-10l-160 16h-192l-113 14l-183 3l-183 -3q-4 0 -16.5 6.5t-15.5 9.5t-3 17zM-18 260q0 27 32 45 q94 -8 211 5q237 28 281 28h66l82 -2h18q55 0 106 -18.5t77 -38t26 -39t-3.5 -33.5t-23.5 -14h-6q-72 18 -143.5 21t-145.5 11l-113 15l-63 -15q-14 -4 -41 -9t-52.5 -10t-45 -9t-21.5 -4h-12l-53 -3h-23l-88 3q-20 6 -42.5 23t-22.5 44z" />
<glyph unicode="&#x3e;" horiz-adv-x="636" d="M-10 928h67q207 -160 288 -215q167 -112 321 -185q18 -20 18 -40.5t-2 -24.5t-10 -10t-20.5 -13.5t-26 -14.5t-24.5 -14.5t-16 -11.5t-32 -24.5t-55.5 -45t-55 -46t-33.5 -27.5t-43 -31.5t-77 -55.5t-76 -56.5t-41 -30.5t-18.5 -17.5t-16.5 -15.5h-6l-10 -2q-23 0 -28 13 t-5 37t20.5 46.5t49 42t59.5 33.5t49 23l256 239v17q-35 35 -122 92t-132 87t-69.5 46t-60.5 36.5t-68 44.5q-80 60 -80 124z" />
<glyph unicode="?" horiz-adv-x="722" d="M0 1087v17q2 4 8 16.5t12 22.5t22.5 35.5t31.5 51.5q39 63 39 66q49 66 193 66h63q174 0 264 -75t90 -257v-41q0 -34 -24.5 -73t-67.5 -80t-90 -79t-92.5 -77t-65.5 -67.5t-30.5 -46t-20.5 -34.5q-27 -48 -27 -53q-16 -80 -16 -190q-5 -19 -33 -19q-66 0 -66 150 q0 113 42 183.5t102.5 125.5t127.5 111q85 70 134 172q12 24 12 28l2 45q0 83 -64 135q-59 46 -132.5 46t-133.5 -12q-96 -18 -155 -126q-11 -19 -13.5 -33t-5.5 -24q-6 -27 -8 -31t-27.5 -4t-36.5 11.5t-34 39.5zM221 2q0 80 101 80q51 0 81.5 -11.5t30.5 -64.5 q0 -104 -106.5 -104t-106.5 100z" />
<glyph unicode="@" horiz-adv-x="1142" d="M-31 606q0 137 37 266q2 4 9.5 17.5t31 51.5t88 111.5t141.5 133.5q178 139 342 139l39 -2q143 -18 239.5 -49t156 -89.5t85 -152.5t25.5 -239l-2 -101q-15 -126 -146 -244q-36 -32 -61.5 -55.5t-39 -32t-25.5 -11.5t-27 -3h-43l-71 2q-8 6 -24.5 27.5t-35.5 44.5 q-47 57 -57 57l-10 -2q-6 -4 -21.5 -17.5t-33 -27.5t-33 -27.5t-33 -25.5t-36.5 -12h-56q-170 0 -197 165q-8 50 -8 82v80l2 53q11 15 46.5 49.5t54 53t25.5 24.5t22.5 19.5t32.5 28t32.5 26.5t21.5 17q43 35 96.5 35.5t102.5 0.5h109q72 -27 71 -108q0 -58 -25 -117 q-49 -112 -49 -162q0 -155 64 -155q67 0 153 99q87 100 91 171v17l2 63v27q0 55 -2 111t-35 108q-2 4 -12.5 11t-22.5 16q-31 25 -37 28q-112 90 -301 90q-53 0 -95 -4t-72.5 -21.5t-62.5 -38t-67 -42.5q-67 -44 -111 -80.5t-74 -87t-45 -105.5q-22 -85 -22 -219.5 t36 -224.5t128 -170q43 -37 93 -45q63 -10 123.5 -10t93 12t63.5 27.5t62.5 31t52 18.5t35 1t31.5 -4q47 -7 58 -13q21 -5 21 -47v-16q0 -6 -2 -10q-6 -2 -18 -8.5t-71 -29.5q-229 -87 -399 -87q-77 0 -115 21q-43 25 -118 87q-201 178 -201 473zM311 477q0 -13 47 -33h9 q78 0 167 136q82 123 82 211q0 31 -15 34.5t-46 3.5h-37q-2 -2 -17.5 -12t-32.5 -23q-66 -48 -85 -67l-51 -51t-21 -23v-176z" />
<glyph unicode="A" horiz-adv-x="1155" d="M-112 -96q0 4 4 14q4 12 8 28q10 38 21 62.5t26.5 65.5t29 61t42 65.5t60.5 96.5t60.5 95t33.5 54q24 51 30 59.5t6 10.5v10q0 2 -2 2l-49 17v6q0 21 29.5 54.5t34.5 35.5t24.5 0t22.5 -1t8.5 7t9.5 11t16 23.5t18 29t20.5 40t30 60.5t28 55.5t16.5 34.5t25.5 66.5 t46 121t45 121t26.5 74.5q14 45 55 45h9q78 -16 79 -16q-2 -8 -2 -33t3 -37t11.5 -20.5t18.5 -14.5q28 -17 33 -39q109 -364 305 -817q14 -31 33.5 -69.5t37.5 -80.5q42 -102 42 -163q0 -14 -1 -33.5t-25 -19.5t-40 15t-28.5 35.5t-20.5 42t-12 29t-11.5 13.5t-7.5 8 l-32 127q0 4 -11.5 30.5t-27 62.5t-30.5 73t-27.5 62.5t-30 30.5t-33.5 30h-16l-46 2h-18q-90 0 -176 -14.5t-132 -17.5t-56 -3q-26 0 -49 -1t-42.5 -18.5t-36.5 -38.5q-26 -35 -59 -99t-82 -151t-86 -171q-10 6 -19.5 -1t-14.5 -16q-24 -40 -31 -47q-6 -18 -6 -32.5 t-2 -26.5q-3 -30 -40 -53q-2 -2 -4 -2h-8q-2 0 -4 2l-16 16q-2 4 -3 9q-1 4 -5 10q-6 6 -6 12zM414 641h424l-7 31q-58 159 -176 385q-10 -6 -14 -13.5t-13.5 -22.5t-19.5 -32.5t-19 -35t-12.5 -22.5t-10.5 -19.5t-15 -31t-15.5 -29.5t-10.5 -18t-17 -29t-30 -52 q-28 -50 -39 -67q-13 -20 -25 -44z" />
<glyph unicode="B" horiz-adv-x="854" d="M51 -51q0 156 8 196q0 14 7.5 67.5t15.5 115.5q19 150 35 267q27 200 27 470q0 118 -5 248q16 16 36 17t40 1q430 0 596 -227l2 -47v-29q0 -61 -28.5 -119.5t-62.5 -92.5q-51 -51 -183 -111l-2 -9l2 -4v-4q4 -2 24.5 -15.5t24.5 -15.5q18 -18 42.5 -40.5t47.5 -46.5 q54 -56 70 -105v-88q0 -57 -3.5 -102.5t-28 -94.5t-64.5 -87t-88 -65q-102 -59 -202 -59q-8 0 -26.5 6.5t-20.5 10.5q-4 0 -4 22.5t21.5 33.5t52.5 17.5t64.5 13.5t60.5 24t53.5 59.5t46.5 91.5q43 109 43 165t-23.5 82.5t-59.5 44.5q-61 30 -144 38h-94l-49 30h-17 q-30 -10 -30 -16v-559q0 -2 -12.5 -7.5t-28 -11.5t-30.5 -17t-29 -23q-33 -25 -85 -25zM84 22q0 -38 4 -38q1 0 2 2q8 4 8 23.5t-8 23.5q-6 12 -6 -11zM236 700q55 0 137 20.5t158.5 57.5t131 91.5t54.5 121.5q0 124 -122 191q-98 53 -233 53l-79 -2q-2 -2 -8.5 -7 t-10.5 -13q-28 -56 -28 -60v-453z" />
<glyph unicode="C" horiz-adv-x="1124" d="M31 586v39q24 126 65 192q10 10 20 27q20 30 25.5 37.5t18 32t19.5 32.5t35 36t57.5 58.5t56.5 57.5l39 39q35 33 66.5 66.5t64.5 62.5q77 65 161 65l60 -2q17 0 49 -16l143 -17q59 -10 107.5 -56t85.5 -87q-5 -18 -33.5 -18t-62.5 34l-2 -8l2 -4v-4q3 -3 16.5 -28 t21 -36.5t10.5 -16.5q15 -25 15 -32q0 -16 -31 -16h-16q-27 29 -57.5 62.5t-65.5 63.5q-81 69 -158 69q-31 0 -49 -8.5t-55 -26.5q-236 -113 -336 -383q-8 -20 -20.5 -56t-25.5 -72t-22.5 -63.5t-11.5 -31.5l-2 -39l2 -25v-16q44 -251 211 -352q58 -35 133 -35q6 0 28.5 1 t27.5 1q-35 42 -35 67q33 0 57.5 -18.5t56.5 -18.5t50 5.5t47 27.5v-31q48 12 83.5 42t57 45.5t51.5 23.5q-13 -23 3 -36q32 -26 32 -44v-10q0 -6 -9 -11t-17.5 -10.5t-15.5 -10.5t-10 -7t-21.5 -16.5t-40.5 -29.5q-54 -38 -81 -59q-49 -38 -149 -38q-171 0 -315 82 q-158 136 -216 213q-120 157 -120 307zM104 481q0 -6 2 -12q2 -4 5 -4q1 0 3 1q5 3 5 15.5t-5 15.5q-2 1 -3 1q-3 0 -5 -4q-2 -6 -2 -13z" />
<glyph unicode="D" horiz-adv-x="1157" d="M61 66l17 399q0 25 -1 54.5t1 60.5q5 71 33 108l-2 169l2 167l16 113l-16 80v16q2 4 6 15.5t10 23.5q14 28 31 41q80 16 139 16t82.5 -4t50.5 -10q69 -15 78.5 -17t39.5 -7t65.5 -10t66.5 -9q102 -13 170 -70t115 -122q78 -106 137 -279q6 -14 15 -48t13.5 -48.5 t4.5 -16.5l-17 -127q-4 -49 -5 -97t-7 -94q-14 -107 -68 -177q-35 -50 -168 -93q-32 -10 -55 -20l-65 -31q-220 -83 -436 -83q-38 0 -76 3q-8 -14 -21.5 -15t-26 -1t-22.5 -5t-10 -28q-6 -4 -24 -10q-16 -5 -22 -5h-2q-5 1 -17.5 13.5t-14.5 18.5t-4 24.5t-5 38.5 q-8 53 -8 66zM221 305q0 -49 7.5 -119.5t9.5 -72.5l32 -47q5 -5 58 -5t80.5 4.5t52 9.5t50.5 11t55.5 9t43 2t23.5 -1q28 0 111 48.5t125 83.5q96 78 120 173q7 21 20 87.5t15 99.5v8q0 56 -36 156q-40 106 -67.5 161.5t-64.5 98.5q-79 92 -260 158q-79 28 -104 37.5 t-29 9.5l-51 2q-80 0 -191 -50v-864z" />
<glyph unicode="E" horiz-adv-x="827" d="M92 33q2 20 4 64t5 99.5t6.5 116t6.5 115.5t6 99t3 65v16q-2 6 -7 25.5t-10 23.5l3 169l-3 167l-14 287v10q0 25 24 25h36q78 0 147 -19h496l32 -16l-16 -31q0 -2 -13.5 -4t-31.5 -5q-42 -7 -68 -7l-231 -2l-231 2q-18 -6 -16 -20.5t-0.5 -34t-6.5 -81t-9 -130 t-10.5 -129t-7.5 -84.5l17 -49h176q18 20 52 19t52 -1l72 -2q33 -18 33 -72v-8q-6 -10 -17 -16l-111 2l-112 -2q-37 0 -72.5 -5.5t-53 -7.5t-19.5 -4l-17 -16v-479l17 -17h12l55 -2h23q84 0 164 10.5t140.5 10.5t88 -1t62.5 -18l2 -8q0 -30 -58 -62q-50 -26 -88 -26 l-352 -14q-62 -3 -65 -28q-1 -9 -4 -16.5t-24 -7.5t-30.5 10.5t-16 26t-10.5 33t-10 29.5z" />
<glyph unicode="F" horiz-adv-x="1046" d="M51 -43l2 29l17 94q9 72 15.5 169t10.5 144t4 56l4 360l-2 277q0 57 -2 83l17 111q10 -6 15 -1t11.5 24.5t6.5 25.5h272l31 17h14l59 2h60l86 -2h20l82 -17h98.5t53 -2t39 -5t39.5 -5q37 -4 40 -15.5t3 -23.5q0 -25 -17 -45q-23 -2 -71 -4t-108 -6t-126 -7.5t-126 -6.5 t-107.5 -5t-69.5 -4l-86 2q-63 0 -90 -18q-31 -166 -31 -338l135 2h135l289 -14q4 0 16 -6q17 -9 17 -17v-8q0 -29 -19 -49q-8 -2 -27.5 -4t-42.5 -6q-51 -7 -73 -7h-127l-242 -16q-63 -9 -63 -16v-512q18 -56 18 -107v-12q0 -10 -21.5 -32t-29.5 -26q16 -4 17.5 -18 t1.5 -25.5t-11.5 -21.5t-27.5 -17q-32 -16 -60 -16q-49 0 -49 39z" />
<glyph unicode="G" horiz-adv-x="1105" d="M41 478v81l2 105v24q0 8 5 29.5t7 33t19.5 73t65.5 162.5t120 178q154 165 399 165h25l111 -16h16l16 16q2 2 4 2h9q2 0 4 -2l16 -16q47 -55 90 -116.5t54 -139.5q0 -12 -14.5 -29.5t-18.5 -17.5h-4q-2 0 -2 -1t-7 -1t-13.5 8t-9.5 19.5t-5 21.5t-17.5 30.5t-51.5 52 t-78 56.5q-89 53 -175 53q-73 0 -116 -16q-182 -167 -256 -305q-68 -130 -103 -278q-12 -50 -12 -97t18.5 -139t56 -177t98 -145.5t160.5 -60.5q189 0 341 194q61 149 61 273h-238q-2 0 -8 5t-6 7v51q-2 4 -16.5 15.5t-16.5 15.5q-8 16 -8 37q115 0 219 -13q73 -10 151 -10 q35 0 71 2q4 -12 17 -41.5t13 -46.5v-8q0 -19 -14 -47v-449h-25v64q-11 -6 -24 -31l-8 -137q-7 0 -23 -8l-49 -31q-6 0 -18.5 12.5t-12.5 18.5l14 82q2 10 3 18v29q0 6 -1.5 24.5t-1.5 22.5q-84 -61 -193.5 -94t-218.5 -33q-196 0 -339 192q-2 4 -10.5 19.5t-18.5 36 t-20.5 41t-14.5 29.5t-9 34t-6 33t-1 32zM811 113q66 46 66 96q0 2 -1.5 8t-1.5 8z" />
<glyph unicode="H" horiz-adv-x="964" d="M82 6q0 45 16 107v880q0 21 5.5 62t7.5 64.5t4 31.5t6 26.5t9 38.5q11 47 17 65.5t32 20t36 1.5q0 -72 -10 -144t-10 -143v-39q2 -14 6 -51t9 -77q9 -72 17 -128q4 -4 22.5 -9t29.5 -7t43 -8.5t66 -11.5q88 -13 95 -13h159t114 16l16 17q16 53 16 104v109q0 78 -8 151.5 t-8 121.5q0 89 47 89q19 0 33 -14l14 -289v-223l17 -113v-16l-17 -144v-481q0 -2 -6 -8t-8 -6h-8q-41 0 -81 27.5t-40 84t13 115.5q32 138 32 383l-469 12h-55q-2 -14 -4 -51t-6 -77q-7 -86 -9 -152t-10 -151q-5 -57 -5 -116q0 -30 1 -61q-4 -6 -22.5 -24.5t-24.5 -22.5 l-25 -2q-57 0 -57 55z" />
<glyph unicode="I" horiz-adv-x="438" d="M41 1257l2 9q4 6 16.5 18t16.5 12h256q23 0 44 -12t21 -29.5t-2 -24.5t-12 -11t-25.5 -11.5t-33.5 -15.5q-46 -20 -56 -23v-1089q0 -2 5.5 -8t9 -7t65.5 -16v-16q0 -49 -102 -49q-78 0 -140 16q-16 5 -16 35l2 8v6q4 4 32 15.5t31 14.5t2 16.5t-1 17.5l16 192v63l2 258 v185l-2 185v44l-16 144q-6 4 -19.5 10t-28.5 14q-41 23 -50 27t-15 14v4q0 2 -2 4z" />
<glyph unicode="J" horiz-adv-x="577" d="M0 -50.5q0 19.5 10 35t29.5 15.5t37 -8t51.5 -8t62.5 28.5t45.5 68.5q22 55 30 113t11.5 81.5t5.5 49t4 48t2 28.5v832h-207q-4 0 -10 12t-6 17.5t6 11.5t9 7t12 3t21 5q26 7 30.5 8t16 15.5t15.5 16.5q6 2 14 2h23q88 0 172 -11q62 -8 128 -8q23 0 48 1l17 -17v-8 q0 -16 -19.5 -26.5t-29 -12.5t-29 -7t-43 -10t-44 -9t-28.5 -6v-881q0 -126 -69 -280q-33 -76 -81.5 -130.5t-111.5 -54.5q-70 0 -109 44q-14 15 -14 34.5z" />
<glyph unicode="K" horiz-adv-x="1009" d="M102 80q0 104 16 208q15 104 17 204q1 40 1 80q0 60 -2 120q-3 100 -4 198v22q0 223 38 368q4 20 21.5 43t39.5 23q23 0 45.5 -5.5t22.5 -33.5l-2 -27q-31 -246 -31 -449v-63l64 49l465 447q32 38 133 50q24 3 43 3v-21l-82 -79q4 -4 4 -16.5t-2 -16.5q-9 -19 -34.5 -33 t-38.5 -23q-29 -19 -40 -24q-125 -93 -289 -287v-8q0 -23 19.5 -47.5t28 -37.5t23.5 -46t36.5 -75t45.5 -90q42 -83 70.5 -140.5t36.5 -75t41 -63.5t67 -95q81 -118 81 -151q0 -6 -12 -18t-21 -17h-8q-20 0 -40.5 15.5t-31.5 31.5q-78 104 -137 230t-93 188.5t-56.5 100.5 t-48 82t-48 83t-32.5 53q-8 -8 -29 -28.5t-44.5 -44t-43 -44t-25.5 -26.5t-11 -17.5t-7 -15.5q-16 -94 -32.5 -190.5t-16.5 -148.5t1 -70.5t1 -22.5q10 29 23.5 40t43.5 11q0 -139 -52 -178q-23 -18 -48 -18h-42q-17 0 -22 16z" />
<glyph unicode="L" horiz-adv-x="909" d="M41 62.5q0 27.5 14.5 45t34.5 35.5q10 52 21.5 193t11.5 158v546q0 10 2 37t4 57q4 64 10 104t24.5 65.5t61.5 25.5t76 -20.5t45 -59.5l-24 -2q-34 0 -56 17l-16 -47q0 -2 -4 -41t-8 -92q-12 -142 -22 -240q-13 -140 -13 -508v-127q20 -2 20 -21l-8 -86q0 -18 21 -22h15 l47 -2h36l49 2h12q252 28 287 33l113 30h16q98 0 98 -94l-2 -49q-44 -33 -121 -33t-127.5 15.5t-103.5 17.5l-215 2l-217 -2q-25 4 -53.5 19.5t-28.5 43z" />
<glyph unicode="M" horiz-adv-x="1339" d="M92 348v68l17 239l4 341l2 262v77q81 0 106 -22q111 -117 221.5 -213t227.5 -203l30 31q11 11 38.5 43.5t42 48.5t23.5 26t50 51.5t87 87.5l110 110t49.5 45.5t24 14.5t40.5 21l23 2q39 0 57 -18v-34l2 -106v-81l-2 -105v-26l-16 -207v-146l-31 -336v-26q0 -18 10 -27 q21 -19 21 -36t-6 -37.5t-15 -38.5q-24 -53 -26 -74q-2 -18 0 -41t-1 -43q-7 -45 -57 -45l-22 2q-19 140 -19 252v172q0 205 14.5 408.5t14.5 408.5q-2 0 -5 4t-5 2q-88 -72 -171 -175t-151 -194q0 -2 -14 -30q-2 -4 -8 -24.5t-8 -24.5q-30 -15 -50 -15q0 -2 -14 -16 q-61 -90 -164 -90l2 12v12l33 50v16q-2 2 -7 14.5t-11 22.5t-24.5 39.5t-24.5 38.5t-32 42t-54 69q-51 68 -87 110l-79 80q-16 -154 -17.5 -296.5t-1.5 -228.5v-134l2 -204v-65q18 -29 18.5 -73t0.5 -62v-30l-2 -56v-19q-4 -16 -17.5 -17t-23.5 -1q-43 0 -56 49 q-49 183 -49 348zM514 912.5q0 -15.5 11 -15.5t11 15.5t-11 15.5t-11 -15.5zM528 895q0 -14 13 -14q12 0 12 15t-12 15q-13 0 -13 -16zM545 880.5q0 -16.5 12 -16.5t12 16.5t-12 16.5t-12 -16.5zM594 816q0 -15 11 -15t11 15t-11 15t-11 -15z" />
<glyph unicode="N" horiz-adv-x="1044" d="M92 1161h82v182q0 2 22 9q24 6 46 8q2 0 4 1q18 1 28 -15t16.5 -38t10.5 -43.5t11 -36.5t27.5 -60.5t47.5 -100.5t56.5 -115.5t57 -116t49 -99.5t30 -60t26 -47t38.5 -67q63 -111 83 -134q20 -20 31 -12q0 -36 11 -56t22 -24q29 111 30.5 224.5t1.5 225t-8 222t-8 225.5 v63q14 25 44 37.5t49 12.5h32q14 0 18 -17v-27l2 -78v-56l-2 -78v-17l-16 -225v-256l-16 -96q-2 -12 -4.5 -33t-5.5 -41q-7 -48 -7 -52.5t7 -25t10 -25.5v-14q-2 -8 -6.5 -27.5t-9.5 -40t-9 -38t-8 -32t-10.5 -41t-16.5 -50.5q-23 -53 -78 -53l-6 153q0 11 -19.5 38.5 t-28.5 42.5t-18.5 28.5t-12.5 17.5q-12 16 -17 16q-4 4 -24.5 16.5t-22.5 16.5t-1 16.5t1 16.5q-14 35 -36 51.5t-50.5 50t-53 80.5t-44 74.5t-44 61.5t-53 73t-53.5 73t-35 48q-2 -14 -4 -53t-5 -83q-7 -103 -7 -120v-33l-2 -72v-56l2 -72v-23q16 -29 17 -56.5t1 -56.5 l-2 -63q-10 -4 -27.5 -21.5t-21.5 -27.5v-35q0 -39 9 -65.5t9 -67.5l-2 -55q-5 -19 -39 -19q-35 0 -40 19v88q0 201 9 399.5t9 304.5v137l-2 132v42q-2 4 -7 16.5t-8 15.5t-10.5 9t-15.5 14.5t-15.5 15.5t-8.5 10t-3 10.5t-4 14.5t-2 15zM270 1080q0 -7 6 -7h3q6 2 6 8t-6 6 q-2 1 -4 1q-5 0 -5 -8z" />
<glyph unicode="O" horiz-adv-x="1136" d="M31 640q0 97 32.5 185t86.5 165q88 127 268 274q12 10 18 21t12 21q14 23 41 23h25l31 -16q6 -3 41 -6q76 -8 104 -27q210 -128 299 -248q117 -157 117 -368q0 -292 -122 -478q-143 -219 -417 -219l-69 2q-8 0 -32 6.5t-52 13.5q-48 12 -92 27q-254 91 -283 432 q-8 95 -8 192zM127 598.5q0 -118.5 18.5 -212t63.5 -164.5q100 -159 313 -159q78 0 148.5 13.5t127.5 64.5q142 128 188 249q11 29 24 59v12l2 59v27q0 208 -96 377q-109 195 -291 243l-64 17q-2 2 -15.5 9t-17.5 7q-66 0 -102.5 -30.5t-76.5 -87t-81 -115t-72 -119.5 q-69 -131 -69 -249.5z" />
<glyph unicode="P" horiz-adv-x="827" d="M61 186l2 54l17 112q18 270 18 636q0 132 -2 276q23 19 31 49h19l58 2h44l58 -2h13q18 -2 66.5 -6t102.5 -9q99 -10 167 -18q79 -21 110 -125q19 -63 19 -133t1 -94v-13q0 -18 -2 -33q-13 -96 -64 -130q-126 -105 -307 -134q-29 -4 -61 -10t-60.5 -10t-34.5 -6t-24.5 -7 t-24.5 -10q-51 -393 -51 -614q-36 0 -50 4t-19 10.5t-7 8.5q-19 125 -19 202zM193 676l126 12q248 50 324 194q29 56 29 118.5t-16.5 92t-43.5 49.5q-42 33 -133 58q-3 3 -33 13t-44.5 15t-18.5 5h-47q-104 0 -131 -45q-12 -19 -12 -51v-461z" />
<glyph unicode="Q" horiz-adv-x="1189" d="M0 471v16q0 331 102 542q41 85 106.5 137t132.5 71.5t105.5 32t50 17.5t26 10.5t26.5 10.5q17 7 37 7h35q190 0 278 -82l176 -176q2 -4 8.5 -16.5t10.5 -22.5t16 -41t26 -61q26 -60 38.5 -97t13 -75.5t0.5 -105.5q0 -173 -66 -286q-4 -6 -16 -24.5t-27.5 -42t-31 -45 t-19.5 -27.5t-11 -15.5t-14.5 -20.5t-14.5 -20.5t-9 -13.5v-14q0 -20 34 -58t45 -51.5t17 -19.5q-30 -30 -33 -31h-16q-41 12 -72.5 49t-54.5 62l-16 2l-17 -2q-4 0 -39.5 -22.5t-59.5 -36t-78 -27.5t-95 -25l-25 -2h-12q-6 0 -12 1t-34 7.5t-60.5 13.5t-64.5 15l-48 12 q-8 4 -39 13.5t-40 18.5t-28.5 27.5t-40 39t-37 38t-21.5 22.5t-14 18.5t-19.5 29t-19.5 29.5t-12 19t-9.5 24.5t-6.5 23.5q-18 18 -49 80v19zM96 551q0 -82 14.5 -159t58.5 -139t85 -106.5t94 -64.5q52 -20 89 -20h2q38 1 91 1h97q26 12 48.5 20.5t33 13.5t27 12.5 t31.5 16.5q36 22 36 50.5t-15.5 51t-33.5 44.5q-49 56 -49 93t32 36q32 0 66 -16q4 -6 12 -22.5t18.5 -35t19.5 -33.5t14 -23.5t16 -14.5h4q2 0 4 -2q29 0 64.5 47t65.5 121q57 140 57 271q0 30 -3 59q0 154 -162 368q-2 4 -8 9.5t-9 8.5t-16.5 9t-28.5 14q-73 39 -97 39 h-240q-7 0 -47 -16l-80 -31l-65 -16q-167 -118 -214 -422q-12 -82 -12 -164z" />
<glyph unicode="R" horiz-adv-x="970" d="M92 293v175l2 231v53q0 27 5 108.5t7.5 127.5t4.5 69l16 143q0 4 -1 24.5t1 24.5q6 22 75 39q109 27 160 27l37 -2q177 -40 303 -133q162 -117 162 -271q0 -188 -162 -317q-4 -2 -27.5 -14.5t-35.5 -16.5l-49 -16v-6q0 -10 15.5 -34t19.5 -28t17 -20.5t28.5 -33.5 t29 -32.5t23.5 -25.5t49 -49.5t82 -83.5t82 -81.5t55 -54.5v-33q0 -23 -5 -44t-27.5 -21t-36 2t-27.5 16q-30 42 -105 137t-113 145t-55 73t-37 50.5t-43 52.5q-55 56 -112 56q-99 0 -207 -18q-4 -4 -9 -15.5t-7 -17.5t-5 -29.5t-5 -49t-4.5 -48t-2.5 -33.5l-2 -175l2 -175 q-18 -27 -32 -32h-8q-20 0 -36 13.5t-20 33.5v77zM205 756l2 -88v-27q-1 -4 -1 -7q0 -44 120 -44h41q151 0 272 60q43 22 71.5 66t51 92t22.5 101.5t-29.5 101.5t-72.5 91q-101 101 -172 115q-82 16 -166 16t-98.5 -1t-18.5 -9.5t-3 -23.5t-1 -46l-16 -225v-20l-2 -86v-66z " />
<glyph unicode="S" horiz-adv-x="794" d="M84 297l4 88q8 23 26.5 44.5t47.5 21.5q0 -178 30.5 -252t80 -112t135.5 -38q192 0 192 289q0 126 -135 238q-60 49 -103 92t-76.5 75.5t-62 62.5t-49.5 51.5t-22.5 48t-1.5 61.5q0 131 46 213t162 133h17l160 -33q56 -17 93 -87q15 -30 27.5 -61.5t24.5 -58.5l31 -65 q2 -2 2 -4v-9q0 -2 -5.5 -6.5t-27.5 -11.5h-4l-6 -2q-12 0 -33 41t-51 89q-83 130 -189 130q-70 0 -113 -69q-36 -58 -36 -125.5t22.5 -111.5t57 -79t79 -64.5t87.5 -60.5q104 -75 137 -149q65 -144 65 -285t-72.5 -224t-222.5 -83q-92 0 -157.5 44t-110.5 99t-47 88t-2 82z " />
<glyph unicode="T" horiz-adv-x="987" d="M-20 1272v4q0 4 23.5 27.5t27.5 25.5h28q34 0 69 -11q72 -22 110 -22h751q9 0 14 -9t5 -11v-8q0 -2 -2 -4t-7.5 -8.5t-9.5 -6.5q-224 -32 -253.5 -33t-49.5 1t-38 1q-34 -2 -75 -34q5 -72 5 -262t-5 -267l-30 -256v-110q0 -4 -7 -17q-12 -18 -14 -29.5t-5 -21.5 q-7 -23 -7 -28l-2 -97l2 -96q2 -23 -7 -28t-24 -5q-47 0 -47 81q0 20 -2 32l-16 63v13l-2 53v22q0 137 18.5 270.5t18.5 244t-9.5 193.5t-9.5 169v29q0 2 9.5 15t7 19t-12.5 15.5t-22 15.5q-32 15 -45 15l-119 -3l-121 3q-4 0 -17.5 2t-28.5 4q-33 4 -47 8q-54 16 -54 41z " />
<glyph unicode="U" horiz-adv-x="1071" d="M92 628v46l2 51v10l17 129q0 36 5 129.5t7 144t3 57.5t3 15.5t4 18.5t4 20.5t5 16.5t8.5 18t7.5 12h80q2 0 8 -12t8 -20q4 -4 4 -2q-35 0 -52 -48q-7 -20 -9 -41.5t-7 -35.5v-71l-2 -211v-164l2 -212v-47q0 -192 35 -259t89.5 -96.5t148.5 -29.5h40q33 0 49.5 9.5 t37.5 23.5l33 33q192 269 205 464t13.5 374t20.5 362q18 35 103 35q0 -268 -13.5 -525.5t-13.5 -404.5v-188l4 -183l47 -47q-14 -23 -45 -43t-57 -20h-8q-25 13 -25 16v383q-27 -47 -56.5 -100.5t-65.5 -102.5q-82 -111 -173 -149h-21l-63 -2h-20q-66 0 -122.5 6t-99.5 35.5 t-62 64.5t-31 76q-25 79 -30.5 159t-8.5 118q-7 89 -7 104v27z" />
<glyph unicode="V" horiz-adv-x="1036" d="M-20 1288q0 41 24 41q7 0 27 -11q40 -22 47 -22q0 -14 14 -52t16 -43q18 -35 33 -50q53 -113 104.5 -228.5t106.5 -228.5q137 -279 252 -438l17 16l16 50q28 89 77.5 251t81.5 265q116 362 121 392t11 46q14 37 59 37q14 0 31.5 -1t17.5 -24v-8l-30 -96l30 -33 q-214 -352 -303 -719q-2 -6 -9 -32.5t-15.5 -55.5t-15.5 -55.5t-9 -32.5l6 -47h27q-1 -1 -17 -33v-8q0 -16 9.5 -27.5t9.5 -40t-13.5 -27.5t-41.5 1q0 -27 6 -56q1 -6 1 -11q0 -26 -28 -48q-8 -6 -19 -14q-29 -23 -34 -25h-8q-35 0 -49.5 26.5t-39 94.5t-53 176.5t-55 167.5 t-49.5 108.5t-50.5 106.5t-51 106.5t-27.5 57.5t-8 19.5t-10.5 24.5t-10.5 25.5t-8 19.5t-26.5 56t-50 106.5t-51.5 106.5t-28 58.5t-10 23t-10 25.5t-8 22.5t-4 12.5z" />
<glyph unicode="W" horiz-adv-x="1583" d="M-51 1335q25 0 40 -2t31 -25.5t26.5 -70.5t35.5 -121t73 -196.5t96 -244.5q121 -307 167 -499q4 -4 22.5 -9t24.5 -7h16q31 50 84 161t58.5 122.5t14.5 42t19.5 65.5t20.5 65.5t12 38.5q13 53 64 129q4 4 22.5 10.5t30.5 6.5t41 -36t58 -83q48 -81 69.5 -121.5t32 -57 t20.5 -34.5q25 -45 29 -52t18.5 -36t29.5 -60.5t29 -60.5l19 -37q2 -2 7 -8t9 -6l33 47q55 110 163 526q17 66 34.5 129.5t22.5 84t12.5 51t14.5 65.5q18 91 27 116t14 40.5t9 29t7 16.5t15.5 14t16.5 15h6q35 0 62.5 -10t27.5 -35v-29q0 -5 -5 -13.5t-12 -24.5t-20.5 -48 t-26.5 -63q-32 -71 -35 -83.5t-18.5 -61.5t-35 -114.5t-42 -140.5t-41.5 -140q-44 -145 -49 -164t-9.5 -31t-10.5 -25.5t-10 -24.5t-6 -18.5t-16.5 -47.5t-31 -86t-30.5 -86t-19 -54t-12.5 -34.5t-16.5 -36.5q-20 -38 -65 -38q-12 0 -30.5 1.5t-18.5 23.5q0 23 9.5 40 t9.5 40l-2 24q-6 12 -24.5 41t-39.5 63q-42 71 -55.5 91t-25 39.5t-24 43.5t-23.5 45.5t-15 27.5t-13.5 25.5t-19.5 40.5q-41 88 -66 95q-21 -15 -33 -45t-14 -36t-14 -36t-25.5 -66t-24.5 -65.5t-16 -37.5l-16 -33q-23 -59 -43 -115q-37 -107 -74 -192q-14 -31 -42 -31 t-42 22.5t-45.5 102.5t-76 219t-89.5 271.5t-97 251t-90 218t-65.5 173t-27.5 159.5z" />
<glyph unicode="X" horiz-adv-x="1062" d="M2 -47l14 47q2 4 2 16.5t-2 16.5q220 231 433 592q2 2 2 6v8q-3 24 -18 53t-21 42q-12 26 -57.5 83t-54.5 69.5t-43 62.5t-73 107q-96 139 -118 177v14q16 32 16 33l-2 46q0 36 24 36h5q2 0 17.5 -11t36.5 -39t39.5 -56.5t35 -59.5t28.5 -49t28.5 -43t37.5 -52 q50 -68 65.5 -88.5t33.5 -44.5t36 -49q38 -55 78 -86q84 72 139 152t87 132t63 99l30 66q26 39 152 73q31 9 47 9q0 -48 -10.5 -57t-18.5 -18t-30.5 -36.5t-46 -56.5t-41 -50.5t-34 -44t-62.5 -87t-90 -125.5q-105 -147 -105 -152v-49q0 -10 70.5 -149.5t84.5 -164t44 -70.5 t63 -96t63.5 -95.5t42.5 -63.5l3 -16q0 -33 -35 -33t-47.5 19.5t-46 64t-84 108.5t-83 112t-48 84t-32.5 71q-42 87 -92 118q-2 2 -4 2h-4l-6 -2q-4 -4 -16.5 -16t-20.5 -22t-37.5 -53.5t-63.5 -92.5t-62.5 -92t-36 -53t-19.5 -31t-27.5 -46.5t-31 -50t-23.5 -38.5l-14 -33 q-4 -4 -9.5 -10t-8.5 -7t-23.5 2t-24.5 -1q-5 -5 -17 -26q-21 -40 -38 -40h-4q-6 0 -20.5 15.5t-14.5 19.5z" />
<glyph unicode="Y" horiz-adv-x="882" d="M0 1313h82q9 0 113 -113q4 -2 13 -16.5t20 -30.5q25 -38 31.5 -49.5t22 -32t31 -40t27.5 -36t17 -21.5t25.5 -26.5t43.5 -44t44.5 -43t29.5 -29.5q14 10 26.5 32t43 70t75.5 138t74.5 142t37 67.5t15.5 27.5q15 21 45 21t42.5 -5t23.5 -28q-27 -74 -67 -140t-83 -132 q-112 -171 -153 -272q-2 -18 -4.5 -63.5t-5.5 -96.5q-7 -119 -7 -160v-24q0 -80 8.5 -161t8.5 -132.5t-2.5 -76t-10.5 -44.5q-18 -43 -67 -43q-2 0 -10 -1h-7.5h-8.5q-23 3 -23 17v592q0 4 -2.5 17.5t-4.5 29.5q-4 31 -10 49q-27 106 -91 193.5t-102 136.5t-61.5 80 t-51.5 67q-69 87 -87 109t-29.5 35.5t-11.5 36.5z" />
<glyph unicode="Z" horiz-adv-x="1056" d="M-20 -88q0 53 28.5 85t50 56t43 51t45 54.5t42 51t35 44.5t71.5 94.5t124.5 166.5t146.5 196.5t145.5 196.5t123.5 167t80 109q-310 36 -559 36q-74 0 -143 -3q-11 0 -18 22q0 15 21.5 29t31.5 20t12 8h6q115 0 228.5 -9t177.5 -9h84l78 2h18l96 16h19q53 0 96 -32 q14 -11 14 -25v-6q-9 -25 -14 -31l-60.5 -60.5t-47 -46t-24.5 -24.5q-36 -44 -44 -57.5t-28.5 -51.5t-45.5 -81t-47 -81q-74 -132 -147.5 -208t-106.5 -121t-46 -65.5t-28 -43.5q-35 -49 -45 -65t-23.5 -38.5t-28.5 -48.5t-28.5 -49.5t-24.5 -43t-20.5 -32.5t-8.5 -25.5 t1 -14.5v-12l40 8q30 6 214.5 23.5t333.5 17.5h41q34 0 59 -19q8 -2 29.5 -4t42.5 -5q57 -8 57 -29v-9l-16 -16q-12 -12 -17 -16l-172 2h-246l-173 -2q-80 0 -188 -25q-202 -47 -285 -47z" />
<glyph unicode="[" horiz-adv-x="567" d="M41 137v137l2 78v17l14 272l2 160v225l-2 158q10 38 33 82q90 30 113 30l28 2q92 0 178.5 -20.5t176.5 -20.5v-40q0 -16 -191 -33l-65 16l-49 2q-37 0 -61.5 -9t-49.5 -40l-16 -129q-17 -282 -17 -483v-231l2 -124v-41q37 -46 64 -49l352 -30q29 -4 50.5 -32t21.5 -54 q-147 0 -288 6t-282 47q-16 55 -16 104z" />
<glyph unicode="\" horiz-adv-x="937" d="M-12 1245q0 23 4 38t29 15t40 -10t27 -24.5t23.5 -32t43 -60.5t93 -114.5t87 -109.5t38 -58.5t27.5 -46.5q42 -68 84.5 -139.5t120 -191.5t119.5 -185.5t61.5 -93t40.5 -58.5q75 -114 90 -131q29 -33 34 -43q2 -4 8.5 -15.5t8.5 -15.5v-8q0 -20 -14.5 -23.5t-28.5 -3.5 h-15q-7 0 -29 22t-53.5 74t-96 168.5t-132.5 217.5l-16 16q-94 127 -169 246t-167 250q-4 4 -16.5 17t-15.5 16.5t-15.5 24t-16.5 24.5q-11 11 -49 30l-17 16q-15 16 -19.5 28t-10.5 22t-10 19.5t-6 12.5t-14.5 14t-27.5 24q-35 34 -38 41z" />
<glyph unicode="]" horiz-adv-x="520" d="M-20 1266q0 16 11 31.5t29 15.5h11q8 -2 25.5 -4t35.5 -5q37 -8 49 -8l66 -16h270l33 -14l4 -66l-2 -52l-2 -44q0 -10 -5 -52t-11 -92q-14 -126 -17 -143v-63l-14 -512v-209q-13 -42 -85 -33q-16 2 -28 0l-49 -14h-6q-180 0 -313 47l49 63h286l33 17q6 24 8 39.5t5.5 31 t3.5 25.5v160l14 16q-10 6 -20.5 21.5t-10.5 25.5l17 17q3 9 6.5 31t5.5 33t2 15l-14 33v17q29 86 29.5 182t0.5 190v27l-16 16v31q0 4 -6 29.5t-8 33t-9.5 27t-7.5 23.5t6 10t11 6q4 0 16 -6t14 -10v26l-159 6l-64 -16l-49 -2q-20 0 -42 1t-38 17q15 15 16 15l11 -2 q0 2 5 9t-2 13t-24.5 11.5t-32.5 9.5q-38 10 -38 41z" />
<glyph unicode="^" horiz-adv-x="759" d="M-59 635q-36 52 151 359q79 129 109 194t60 108q73 104 159 101q97 -19 196 -263q27 -65 54.5 -108t52.5 -85t48.5 -86t33.5 -80t4 -58.5t-37 -22.5t-42 6.5t-16 16.5t-9.5 23.5t-18.5 27.5q-40 118 -173 330q-32 51 -56.5 95t-40 68.5t-28.5 25.5t-28.5 -20.5t-37 -59.5 t-48 -96t-58.5 -125.5t-66.5 -136.5t-70.5 -121q-81 -118 -138 -93z" />
<glyph unicode="_" horiz-adv-x="952" d="M-14 -373q0 20 19.5 31.5t41.5 19.5h29l88 3h66l88 -3h20l143 -34h11l52 -2h86.5t105.5 9t116 27h33q73 0 73 -43q0 -58 -119 -79q-59 -11 -171 -11h-41l-82 17h-168l-144 18q-71 0 -123.5 1t-88 9t-35.5 37z" />
<glyph unicode="`" />
<glyph unicode="a" horiz-adv-x="864" d="M70 545q0 66 57 127q25 26 52.5 49.5t47.5 42t29.5 25t18 9.5t18.5 3h29q112 0 162 -15.5t101.5 -47t93.5 -73.5q97 -97 97 -198q0 -59 -18 -140q-33 -155 -33 -201t13.5 -53t28.5 -7t28.5 -3.5t13.5 -32t-21.5 -30.5t-50.5 -2t-49 10t-34 24q-34 34 -59.5 34t-53 -13.5 t-53.5 -28.5q-71 -42 -111 -42q-111 12 -193 72q-84 63 -84 163l2 39q27 143 151 234q118 88 265 88q68 0 113 -19l2 16q0 33 -22.5 54.5t-40 38t-47 25.5t-63.5 15q-65 13 -107 13t-74.5 -18.5t-61.5 -45t-53.5 -57.5t-36.5 -45t-17.5 -20.5t-7.5 -6.5h-4q-2 0 -2 -1t-2 -1 l-4 2h-4q-15 15 -16 17zM180 168q0 -24 31 -55t36 -33t21.5 -4t37.5 -5q54 -8 74 -8t55.5 12.5t70.5 30.5q82 44 108 87q9 12 27 49t26.5 54l10.5 21q4 8 4 43t-4 39q-3 7 -21 34.5t-27 41.5t-20 25q-12 14 -76.5 14t-129 -19.5t-113.5 -58.5t-80 -94t-31 -106v-68z" />
<glyph unicode="b" horiz-adv-x="1011" d="M0 1159q0 13 54 34q105 40 124 71q8 12 16.5 31.5t18.5 38.5q24 44 59 44q20 0 26.5 -10t6.5 -29v-26q-31 -354 -31 -459.5t2.5 -120t22.5 -14.5q2 0 2 1t2 1h2q4 4 10.5 22.5t6.5 24.5q75 16 133 16q232 0 289 -44q53 -43 98 -94.5t63.5 -72t24.5 -28.5 q18 -59 18 -117.5t-13 -117t-39 -110.5q-58 -119 -159 -167l-88 -2q-82 0 -151 17q-98 24 -106.5 29t-21 9t-25.5 10t-24.5 10.5t-15.5 6.5h-8q-19 0 -26 -30q-13 -58 -29 -67h-17q-55 9 -65 20q-15 17 -15 167.5t16.5 361.5t16.5 426v96q-4 16 -20.5 40t-37 24t-39 -8 t-50 -8t-31.5 24zM289 479l16 -143q2 -12 1 -19.5t-1 -13.5t10.5 -20.5t23.5 -26.5t15 -16t8 -24q16 -56 74 -80.5t92 -24.5q40 0 82 16q134 63 175 100q81 74 81 189q0 92 -85 188q-89 101 -179 101q-20 0 -36.5 -9.5t-33 -9.5t-22.5 3t-11 6q-17 10 -51 10t-66 -18.5 t-52 -49.5q-41 -61 -41 -150v-8z" />
<glyph unicode="c" horiz-adv-x="770" d="M20 358q0 191 98 329q71 100 163 109q49 5 86 5q239 0 344 -209l2 -17q0 -32 -43 -32l-4 2h-2l-97 94q-19 -3 -53 14q-64 33 -82 33l-49 10l-72 -8q-86 0 -133 -146q-31 -100 -31 -188t2.5 -95t9.5 -21.5t16 -31t16.5 -29.5t7.5 -17l24 -49q19 -36 85 -51q26 -5 54 -5h48 q33 0 55 -2t49 9t49.5 35t44.5 49q55 63 78 63t33 -8t10 -36t-19.5 -60.5t-47.5 -60.5q-64 -62 -126 -62q-82 0 -241 18q-111 12 -195 130q-80 112 -80 228z" />
<glyph unicode="d" horiz-adv-x="935" d="M53 394.5q0 62.5 32 134t84 129.5q116 128 261 128q98 0 135 -32q111 -98 160 -179q23 143 27 284.5t4 289.5q-33 0 -55.5 -9.5t-55.5 -9.5v37q0 15 36 52.5t43 43t31.5 11.5t39 6t27 -13.5t19.5 -31.5q13 -33 13 -54q0 -45 -16 -61q4 -50 4 -225t-4 -223l-31 -273 q-2 -18 -2 -63v-193q0 -45 2 -63q-4 -25 -11.5 -53.5t-38 -28.5t-48 22.5t-17.5 49.5l2 26q2 4 16.5 23.5t14.5 23.5q2 4 -2 16.5t-4 16.5h-8q-79 -91 -120 -124q-86 -70 -167 -70q-211 0 -338 178q-27 49 -30 110.5t-3 124zM180 260q0 -162 99 -180q93 -19 161 -19 q96 0 206 146q28 37 51 67t27.5 41.5t4.5 61t-24.5 106t-62.5 109.5q-92 129 -173 129q-33 0 -82 -14.5t-83 -39t-58.5 -64.5t-38.5 -86q-27 -89 -27 -153v-104z" />
<glyph unicode="e" horiz-adv-x="811" d="M41 357.5q0 97.5 26.5 173t74.5 135.5q108 137 266 137q137 0 227 -59q33 -21 33 -54q0 -52 -66 -82q-24 -27 -162.5 -158t-151.5 -142q-51 -43 -69 -52v-8q0 -40 67 -104q65 -64 103.5 -64t82.5 11t88 31q100 44 138 101l17 33q6 6 30.5 24.5t32.5 22.5 q10 -6 21.5 -21.5t11.5 -29.5t-9 -32.5t-22 -37.5q-19 -25 -46.5 -53.5t-60 -57t-71.5 -51.5q-87 -53 -160 -53h-30l14 17q-19 -4 -35 -4q-21 0 -39 7q-30 13 -69 29q-106 47 -174 145.5t-68 196zM154 419q0 -36 24 -36h8q4 2 16.5 8t21.5 12t48 36t82 63t82 63.5t59 44.5 q37 26 44 78q-29 25 -54.5 30t-62.5 5t-84 -33t-88 -80t-68.5 -101t-27.5 -90zM174 304q0 -15 12 -15t12 15t-12 15t-12 -15zM190 271q0 -15 13 -15q12 0 12 16.5t-12 16.5q-13 0 -13 -18z" />
<glyph unicode="f" horiz-adv-x="604" d="M82 582q0 55 78 66q22 3 43 7v449q0 2 15 26.5t26 36.5q23 35 47 74t63 55l20 6q49 17 77 25h16q178 0 178 -233q0 -18 -6 -28.5t-38 -10.5t-46 27.5t-22.5 61.5t-19.5 61.5t-42 27.5t-58.5 -21.5t-50.5 -52.5q-55 -72 -55 -119v-401h160q1 0 16 -31v-16q-10 -2 -40.5 -7 t-40.5 -9q-17 -8 -54 -16.5t-57 -14.5l-25 -66v-479q0 -29 -19.5 -47.5t-36.5 -18.5t-29.5 1.5t-14.5 14.5t-2 40l-2 116v37l12 394q-16 0 -32.5 -2.5t-29.5 -0.5q-30 6 -30 48z" />
<glyph unicode="g" horiz-adv-x="874" d="M0 266q0 77 20.5 112.5t38 58t43 68.5t62.5 93t81 82q93 74 216 74l67 -2l160 -47q23 -6 40 -5.5t30 -2.5q30 -6 43 -58v-21l2 -67v-51l-2 -69v-15l-17 -97q0 -32 -5 -117t-7 -129t-3 -55.5t-7 -42t-14.5 -66.5t-15.5 -70t-10 -44t-10 -26.5t-18 -34.5q-26 -43 -37.5 -54 t-40 -41t-62.5 -64t-63.5 -62.5t-41.5 -40.5q-25 -16 -50.5 -16.5t-54.5 -0.5q-190 0 -295 160q-16 24 -16 45t17.5 48.5t43.5 47.5q55 43 117 43l-2 -22q-13 -39 -22 -69t-16 -50t-9 -27v-8q0 -47 116 -57q25 -2 62 -2t42 2t21.5 10t36 18.5t40 20.5t34.5 17t28.5 36 t25.5 62q24 66 24 89v39l2 82v63l-2 82v28q-10 -10 -35 -20.5t-28 -12.5t-17 -12.5t-30 -21.5q-46 -30 -49 -31t-15 -1l-50 2h-16q-4 -2 -15 -16q-14 -18 -22 -18h-8q-46 5 -109 35t-104 65q-94 80 -94 184zM111 322q0 -119 65 -209q14 -19 51 -19q39 0 105 22 q137 46 237 134q53 47 60 110q2 19 5 42q7 55 7 77v49l16 64l2 55q-24 0 -34 -39q-4 8 -23 26q-24 23 -33 23h-14q-65 0 -137 -49q-14 -8 -50 -33.5t-77 -52.5q-61 -41 -129 -90q-51 -40 -51 -110zM193 528h16l113 80v19q-41 0 -80 -29t-49 -70zM410 680q6 0 8 8t-8 8 q-9 0 -9 -6q0 -10 9 -10zM422 96.5q0 -16.5 11 -16.5t11 16.5t-11 16.5t-11 -16.5zM666 120q0 -92 6 -92l1 2q7 12 7 66.5t-6 63.5q-2 2 -3 2q-5 0 -5 -42z" />
<glyph unicode="h" horiz-adv-x="849" d="M72 -33l2 66l16 110q2 18 3 61.5t3 98.5t3 118.5t3 120.5q4 116 4 179l3 173v246l-3 173l17 110l18 4q35 0 40 -13t5 -46l-16 -897v-88q32 27 52 101q5 18 10 25t13.5 22.5t18.5 33t19.5 34.5t15.5 26q6 8 15.5 23.5t19.5 30.5t18 27.5t13 18.5q12 14 53 14l55 -2 q117 0 158 -14q98 -34 131 -164q8 -24 10 -34.5t4 -18.5t2 -10v-512q0 -29 -29.5 -40.5t-43 -9t-25.5 14.5t-14 18l2 201l-2 201l-15 110q-13 146 -96 146q-35 0 -89 -27t-74 -40q-43 -29 -79 -79q-2 -4 -9 -16t-14 -27.5t-14.5 -31t-10.5 -23.5t-14 -45t-23.5 -80t-25 -84 t-15.5 -52t-5 -25.5t-5 -30.5q-7 -39 -8 -47.5t-5 -22.5t-9 -30q-11 -35 -16 -44q-2 -4 -14 -16q-18 -19 -23 -19h-8q-2 0 -4 2l-16 17z" />
<glyph unicode="i" horiz-adv-x="456" d="M41 8q0 23 19.5 33t42 18.5t42 18.5t19.5 35v608q0 8 12 45q16 49 29 49h6q28 0 51 -20.5t23 -26.5v-672q0 -24 51 -65q10 -8 12 -13q3 -6 -16 -34q-29 -35 -66 -41t-80 -6h-14l-16 16q-12 4 -32 5t-38 5q-45 10 -45 45zM156 1024q0 51 35.5 74.5t78.5 23.5 q146 0 146 -59q0 -67 -116 -84q-28 -4 -44 -4h-32q-38 0 -53 15.5t-15 33.5z" />
<glyph unicode="j" horiz-adv-x="393" d="M-164 -412q0 76 58 76q35 0 62.5 -21.5t27.5 -53t-17 -38.5q4 -16 21 -16h26q103 0 142 181q10 44 15 62.5t7 31t5 25.5q8 35 11 101l6 132q7 156 7 221v319l-49 97v16l31 31t23 22t10 10t16 2h22q27 0 51.5 -8t24.5 -41t-15.5 -63.5t-16.5 -51t-1 -46.5v-144l-16 -272 v-144q0 -26 -5.5 -66t-7.5 -62.5t-4 -29.5t-6 -30t-9 -48.5t-9 -49t-10 -48.5q-26 -106 -62 -147q-6 -6 -16 -17q-22 -24 -47 -46h-177l-96 96q-2 4 -2 8v12zM172 1053q0 37 9 68.5t48 31.5t68 -25q55 -46 55 -79q0 -26 -28 -44q-48 -30 -84.5 -30t-52 20.5t-15.5 57.5z" />
<glyph unicode="k" horiz-adv-x="913" d="M51 8q0 21 2 24t9.5 10t16.5 14q23 18 23 24q2 4 7.5 33.5t8.5 44t5 37t5 45.5q7 55 7 65v44l2 202v176l-2 203v47l-16 176q-2 16 -12.5 20.5t-22.5 8.5t-21.5 10t-9.5 25l2 16q6 6 19.5 22.5t29 34t28.5 32.5t22 24q28 30 53 30h8l16 -16v-55l-16 -586v-31 q0 -33 5 -106.5t7 -111.5t4 -54l31 49q16 12 57 44t87.5 67.5t87.5 67.5t58 45t21.5 32.5t7.5 39t12 35t24.5 18.5t24.5 3h41t24.5 7t19.5 15.5t19.5 15.5t11.5 9t6 2h10q20 0 51 -17.5t31 -33.5t-13.5 -27.5t-29.5 -20.5t-32.5 -17.5t-22.5 -12.5q-2 -4 -14.5 -17 t-16.5 -15t-16.5 0t-16.5 0q-107 -44 -239 -193q2 -4 7 -15.5t38 -65.5q111 -185 243 -335q60 -69 188 -69h75q0 -10 -19 -19l-20 -8q-72 -16 -103 -16h-57h-73q-69 0 -88 36q-7 15 -11 32q-10 43 -19.5 60t-35 55t-52.5 82q-68 108 -90 136q-8 16 -29 21q-42 11 -51 26 l-112 -113v-32l-2 -49l-1 -94q0 -40 19 -81q19 -19 33 -47l2 -16l-2 -16q-53 -15 -105 -15h-24l-111 15q-4 8 -4 24z" />
<glyph unicode="l" horiz-adv-x="376" d="M37 1167q0 21 59 70q110 92 127 92h8q2 0 25 -11t23 -22l16 -192v-991q-10 -29 -12 -58.5t-7 -56.5q-13 -62 -77 -78q-4 2 -13 12l-20 19q-10 10 -18.5 19.5t-12.5 13.5v6l-2 10q0 20 17.5 28.5t17.5 26.5v8l-33 33l-4 114v30q0 114 29.5 269t43 240t13.5 171l-2 73 q0 23 -5 69t-7 71.5t-4 33.5h-17l-94 -30l-16 -2q-35 0 -35 32zM193 377q0 -8 4 -8h2q8 2 8 8t-8 8h-2q-4 0 -4 -8z" />
<glyph unicode="m" horiz-adv-x="1458" d="M41 0v8q0 19 18.5 26t28.5 10t16 5v367l33 112l-8 119q-18 0 -31.5 -2t-22.5 -1q-20 2 -20 38l2 23q2 4 10.5 15t18.5 24q13 18 31 35q25 24 70 24t52 -10.5t8 -23.5t4 -23.5t13 -10.5t10 1t2 1h5q25 16 44 30.5t41 26.5q43 23 97.5 23t95.5 -21.5t76 -55.5 q67 -64 108 -148q22 28 63.5 63t65 55.5t30.5 24.5t27.5 11.5t46.5 14.5q91 25 103 25h23q74 0 138 -22q81 -27 116 -138q4 -12 8 -22t4 -12v-529q28 0 49 -14v-8q0 -53 -73 -82q-54 -22 -113 -22h-6q-4 2 -17 14q-15 15 -18 24q0 20 15.5 23.5t33.5 2.5t33.5 1t15.5 21 q0 61 -33 106q50 135 50 352q0 33 -11 78q-22 84 -53 96q-28 14 -65 25.5t-56.5 18t-31.5 8.5t-37 -4.5t-49 -16.5q-32 -14 -82 -45q-37 -29 -63 -49.5t-38 -43.5q-18 -36 -27 -86t-26.5 -100.5t-22.5 -105.5v-240q0 -10 -12 -33.5t-15 -28.5t-21.5 -5t-23.5 14t-7 37v106 q0 88 9 173.5t9 173.5t-46 146t-144 58q-96 0 -132 -32q-59 -53 -105 -100.5t-54 -125.5q0 -26 -5.5 -93.5t-7.5 -110.5t-4 -66v-37q0 -31 15.5 -40t34 -12t34 -7t15.5 -19.5t-8.5 -22.5t-19.5 -13q-19 -9 -38 -9l-80 -2h-17l-48 2h-15q-16 16 -16 31zM440 737h47 q0 4 -5 9.5t-9 5.5t-16.5 -5.5t-16.5 -9.5z" />
<glyph unicode="n" horiz-adv-x="964" d="M72 743q0 27 68 68q61 37 90.5 37t33.5 -11.5t4 -27.5l-2 -25q0 -2 -7 -8q-24 -20 -26 -52t-2 -53.5t1 -46t1 -32.5q10 6 15.5 14t25 28.5t40.5 45.5q59 68 73 81q33 31 102 40q12 0 59.5 5t75 7t42.5 4h18q107 0 180 -137q19 -37 27 -72v-312q0 -69 -17 -153 q0 -13 10 -23q38 -44 38 -60q0 -8 -6 -28q-8 -24 -12 -33q-8 -15 -36 -15t-39.5 5t-16.5 19t-7 29.5t-4 33t-4 34t-2 24.5l14 143v22l2 98v72l-2 96v32q-12 53 -38 85t-73 60h-131.5t-88.5 -15q-54 -24 -111.5 -91t-88 -141t-44.5 -154q-18 -97 -18 -248q0 -34 1 -72 q0 -8 -12 -25.5t-17 -20.5q-7 -5 -32 -5q-68 1 -68 64l2 34l33 209v144q0 28 1 62v35v37q-2 93 -11 118q-17 47 -39 69z" />
<glyph unicode="o" horiz-adv-x="1005" d="M20 319q0 16 1.5 26.5t2.5 20.5q1 14 22.5 82t62.5 146t100 131q121 109 336 109l37 -3q52 -5 121 -25t71 -22l96 -96h2q2 0 4.5 -1t2.5 0t2 1h4q4 2 16 10.5t17 6.5q18 -18 38.5 -61.5t22.5 -50.5t2 -21l2 -64v-21q0 -43 -1 -91t-9 -70q-13 -38 -45.5 -81.5t-81.5 -98 t-106 -98.5q-127 -97 -261 -97q-144 0 -209 24.5t-107 59.5t-72 86q-71 121 -71 198zM131 299q0 -86 47 -138t148 -81q10 -2 34.5 -9.5t51.5 -15.5q46 -13 90 -22q107 32 165 72q91 63 171 151q33 37 41 81t8 91l-2 37q0 4 -6.5 22.5t-14.5 42t-15 45t-18 52t-44 62.5 t-75 51q-69 30 -188 30q-221 0 -327 -225q-29 -63 -47.5 -111.5t-18.5 -134.5z" />
<glyph unicode="p" horiz-adv-x="1017" d="M-41 -512q0 33 18 33h113l31 30l-2 169l2 167l16 113v305q0 4 4 26.5t9.5 53.5t10.5 61.5t10 59.5t18.5 62.5t13.5 72.5q0 81 -45 81h-4q-31 -2 -40.5 6.5t-9.5 30t13.5 36t32.5 22.5q39 17 77 17q70 0 70 -129q98 112 174 112q35 0 65.5 -12t82 -25.5t120 -36 t123.5 -58.5q125 -81 125 -228q0 -97 -82 -217q-47 -70 -160 -177q-6 6 -37.5 -5t-83 -35.5t-110.5 -24.5l-41 2q-35 7 -76 19t-65.5 19t-34.5 11q-2 -4 -8 -16.5t-8 -21.5t-8.5 -39.5t-10.5 -61.5t-8 -55.5t-4 -30.5l16 -143v-33l15 -111q40 0 59.5 -14.5t19.5 -26.5v-8 q0 -6 -6 -15t-8 -16q-2 -2 -14.5 -4t-26.5 -5q-40 -9 -52.5 -14t-27 -10.5t-25.5 -10.5q-17 -7 -22 -7h-8l-16 2l-64 33q-10 2 -32.5 2t-43.5 2q-55 5 -55 43zM199 -176h16l2 49l16 160q0 40 -16 80q-18 -130 -18 -289zM281 240q0 -37 16 -69t44 -53q55 -40 162 -40 q229 0 355 227q16 33 40 82t24 101.5t-34 96.5t-85 71q-94 51 -228 51h-32q-10 0 -19.5 -2t-33 -6.5t-49 -9.5t-48 -10t-33.5 -7q-49 -34 -49 -86q0 -29 9.5 -56.5t9.5 -55.5t-7.5 -55.5t-16.5 -55t-17 -57t-8 -66.5z" />
<glyph unicode="q" horiz-adv-x="1134" d="M41 283v22q39 176 183 338q154 174 329 174q46 0 100 -23q102 -42 140 -42h16l80 16q18 0 34.5 -15.5t16.5 -40t-15.5 -55t-17.5 -54t-4 -73t-5 -105.5t-5 -106.5t-4 -62.5l-31 -240v-112l-33 -176v-20l6 -89q31 0 66 27.5t75 59.5t84 59.5t73.5 27.5t48 -1t18.5 -19 t-18.5 -35t-43 -31t-49 -25.5t-72.5 -37.5q-103 -57 -251 -219l-33 -3q-29 0 -41 10.5t-22 39.5q43 66 55 140.5t15 120.5t9 91l17 63v15l2 64v46l-2 64v20q0 4 -6 16.5t-11 16.5h-16q-68 -78 -139.5 -121t-179.5 -43h-20l-77 4q-138 68 -183 110q-89 85 -89 204zM168 276 q0 -47 2 -78.5t16 -55.5t42 -44t62 -36q68 -31 132 -31q139 0 260 145q75 95 81 147q15 113 15 195t-16.5 121t-49.5 61q-56 37 -182 37q-66 0 -100 -51q-14 -20 -26 -42q-20 -33 -54 -40l-20 -4q-31 -6 -33 -8q-10 -21 -18.5 -33t-16.5 -25q-94 -159 -94 -258z" />
<glyph unicode="r" horiz-adv-x="708" d="M82 47q0 131 14 300q20 256 20 394q0 33 -1 60q15 41 88 41v-217q112 112 215 192h24q127 0 240 -85q35 -27 55 -60q2 -2 2 -6v-9q0 -16 -10 -41.5t-31 -25.5l-8 2q-14 22 -52 57t-52.5 47t-23.5 18.5t-30 6.5h-18q-6 -2 -21.5 -6t-32.5 -9q-49 -16 -72 -22 q-38 -10 -81 -90t-75.5 -163t-36.5 -175l-2 -128l2 -128q-10 -48 -27.5 -65t-29 -17t-22 16.5t-17.5 37.5q-17 53 -17 75z" />
<glyph unicode="s" horiz-adv-x="593" d="M72 129q0 66 42 113q13 16 31 16h5q2 0 4 -2t8 -7t8 -9q-2 -2 -33 -64v-14q0 -74 39 -102.5t83.5 -28.5t70.5 1t39.5 11t25 20.5t21.5 20.5q24 24 24 29l2 55q0 70 -13 119t-69 98q-89 44 -223 127q-65 40 -65 106q0 83 80 144q75 55 161 55q61 0 83 -19q69 -62 69 -118 q-31 0 -58.5 25.5t-44 37t-54.5 11.5q-65 0 -138 -99q-4 -4 -4 -15q0 -28 4 -32q32 -57 154 -114q198 -90 198 -314q0 -173 -152 -204q-48 -9 -93.5 -9t-80 11.5t-62.5 33.5q-62 47 -62 117z" />
<glyph unicode="t" horiz-adv-x="630" d="M41 847.5q0 18.5 19.5 27t44 11.5t48 5t33.5 6l-2 79l2 81v31q0 81 47 81q43 0 47 -81q1 -19 2 -25.5t17 -38.5v-16q0 -20 -9 -36t-9 -30t1 -29.5t17 -15.5h190q2 0 8.5 -12.5t8.5 -20.5v-16q-10 -39 -17 -39h-190q-16 -83 -16 -137q-19 -298 -19 -339v-59l2 -74v-24 q8 -45 40 -71.5t72 -26.5t58.5 8t44.5 22.5t34.5 30t14.5 31.5q16 39 48.5 39t37.5 -21.5t5 -50.5t-31 -58.5t-73 -50.5q-91 -44 -157 -44h-30q-102 33 -140 100.5t-38 171.5l2 49q14 104 31.5 199.5t17.5 172t-17 107.5q-14 0 -38.5 5.5t-38 7.5t-26.5 5t-27.5 15 t-14.5 30.5z" />
<glyph unicode="u" horiz-adv-x="925" d="M61 391v97l2 111v26q2 29 3.5 58.5t6.5 56.5q11 60 54 91l16 -16l-2 -119l2 -121q0 -31 5.5 -83t7.5 -81.5t6 -60t17.5 -92t40.5 -114.5q63 -128 171 -128h8q4 2 16.5 7.5t41 32t85 83t103.5 119.5q107 145 107 287l-17 127v26q0 27 10.5 32t19.5 9t19 13 q14 16 21.5 40.5t34.5 24.5h4q2 0 4 -1t16 -15v-146q0 -147 -17.5 -291.5t-17.5 -291.5l2 -56q19 -5 19 -31t-17.5 -38.5t-43 -12.5t-35 21.5t-12.5 50.5t-5 58.5t-18 48.5q-12 -16 -31.5 -44t-44.5 -53q-61 -63 -106 -63h-9q-2 0 -16 14l-33 -30q-2 0 -13 -2.5t-25.5 -3.5 t-28 -2t-22.5 -1t-28.5 1t-38 2t-33 3.5t-18.5 2.5q-16 0 -67 28.5t-62 34.5q-33 18 -45 56t-16 59.5t-6 42t-5 40.5q-8 52 -8 56v26zM543 33q33 8 60.5 35.5t35.5 58.5z" />
<glyph unicode="v" horiz-adv-x="835" d="M23 748.5q0 36.5 9 44.5t44 8h28q7 -4 28.5 -27.5t21.5 -25.5v-5q0 -2 -1 -4t-1 -4l-33 17v-9q0 -25 47 -112t100 -198t82 -169q35 -71 43 -71h4q2 0 4 -1.5t2 0t2 1.5h5q8 0 16 16q12 16 38.5 59t57.5 91.5t58.5 91.5t35.5 57t26.5 49t39.5 76q47 95 68 127 q43 69 129 69q0 -82 -89 -192q-43 -53 -116 -180q-129 -228 -147.5 -259.5t-30 -77.5t-26.5 -90t-40 -77t-68 -33q-96 0 -96 47v17l17 63v16q-6 13 -17 50q-37 90 -65.5 182t-51 151.5t-41 96.5t-36.5 75q-47 94 -47 130.5z" />
<glyph unicode="w" horiz-adv-x="1392" d="M0 768v16q16 31 96 31h17q4 0 10 -6t6 -9t2 -17.5t5 -31t5 -29.5t9 -38.5t31 -69t36 -71t31.5 -71.5t41 -96t40 -96t22.5 -54q14 -33 17 -33h4q2 0 4 -3q18 0 51 44.5t47 68t21 33.5q6 10 19 36.5t28.5 57.5t29 58.5t17.5 35.5t9 19.5t10 24t9.5 24.5t6.5 16v17 q-2 2 -6.5 11t-10.5 20.5t-10 20.5t-6 11t-2 8v9h115q2 0 7 -6.5t9 -10.5t10 -16.5t6 -16.5l15 -143q8 -24 48 -128.5t46 -122t19.5 -42t14.5 -28t20.5 -3.5t31.5 15.5t21.5 27t17.5 23.5t18 27.5t19.5 31t48.5 74t96 181t85 183t36 63.5t18 4h10.5h9.5q9 -1 21.5 -1 t30.5 -2t29 -31q-2 -6 -9.5 -19t-14.5 -29q-17 -37 -50 -86.5t-93.5 -136.5t-119.5 -176q-140 -211 -209 -370h-33q-4 61 -30.5 114.5t-53.5 121.5q-42 105 -108 309q-35 -27 -56.5 -76t-42.5 -87t-48 -75.5t-36.5 -63t-21.5 -54.5t-27 -61q-29 -65 -40 -92.5t-13 -31.5 t-23.5 -4t-37 14.5t-25.5 35t-16 43t-10.5 32.5t-13.5 39t-19.5 60.5t-19.5 60.5t-35.5 96.5t-82 181t-104.5 238.5z" />
<glyph unicode="x" horiz-adv-x="1054" d="M20 784v39q27 0 72 -31q84 -59 88 -87q12 -12 44 -45t67 -69t67.5 -67.5t40.5 -40t19.5 -17.5t25 -19.5t24.5 -18.5t15 -12l9 -2l8 2q31 31 73.5 67.5t67.5 60t64 57t105.5 96.5t137.5 118q10 0 30 -7q36 -13 36 -32v-4q0 -4 -14.5 -32.5t-18.5 -34.5q-12 -8 -42 -32 t-63.5 -49.5t-62.5 -48t-46.5 -35.5t-53 -43t-69.5 -58.5t-58 -48.5l-23 -21v-17q0 -2 13.5 -15t31 -30.5t37 -36t35.5 -33.5t52 -40t70 -55q83 -72 83 -126q0 -16 -10.5 -32.5t-30.5 -16.5h-8q-6 8 -24.5 28.5t-39 44t-39 44t-24.5 29.5q-4 2 -9.5 8t-13.5 12t-36.5 29.5 t-56.5 45.5q-69 56 -75 61q-7 6 -35 20q-47 -29 -94 -77t-77 -80t-52 -69.5t-49 -73.5q-65 -87 -131 -87q0 59 20 82q-25 10 -37 20t-12 32.5t15.5 39t36 29t42 21.5t31.5 15t23.5 14.5t29 18.5t28.5 20.5t18 14.5t16.5 12t24.5 19q32 24 40 32q4 4 14.5 13.5t20.5 19.5 t18.5 19.5t10.5 11.5t2 4v4l-2 8q-68 72 -147.5 134.5t-139.5 138.5q-12 16 -31.5 41.5t-37.5 51.5q-44 59 -44 66z" />
<glyph unicode="y" horiz-adv-x="958" d="M0 768q8 25 19.5 37t37.5 12h15q10 0 24.5 -16.5t30.5 -32.5q8 -4 32.5 -4t30.5 4q33 -70 74 -138.5t82 -137.5q98 -163 142 -314q6 -18 9 -20t18 -2q36 0 44 4q93 149 161 339q15 40 31.5 86t31 86t24.5 68.5t29.5 45t61.5 16.5t60 -17q-3 -57 -35 -106t-53.5 -77 t-32 -46t-22.5 -38.5t-24.5 -44t-23.5 -44t-19 -36.5t-38 -75t-64 -124.5t-62.5 -125t-40.5 -83.5q-4 -2 -16.5 -14.5t-15.5 -17.5t-17.5 -31.5t-31 -56.5t-29.5 -55.5t-22 -41t-19.5 -32t-19.5 -31.5q-18 -27 -32 -59t-22.5 -65t-30.5 -45q-35 -16 -49.5 -44t-23.5 -54.5 t-22.5 -45t-41 -18.5t-42 5t-14.5 27.5t17.5 54.5t41 68t48 67.5t57.5 80.5q71 104 158 291v33q0 2 -5 11t-11 21q-12 26 -17 31q-37 96 -70.5 192.5t-76.5 188.5q-97 206 -236 324z" />
<glyph unicode="z" horiz-adv-x="1058" d="M0 -25l2 5v4q0 2 6 7t10 8t15.5 12t25 20.5t25.5 20.5t16 13t24.5 26t45.5 46.5t46 44.5l26 27q71 53 152 110.5t126 93.5q75 60 266 259q-123 51 -284 51h-22l-50 -2h-12q-34 -5 -145 -40.5t-126 -41.5h-16q-35 0 -35 35l2 8v6q2 2 11.5 6t20.5 10q29 14 32 17 q16 16 16 63l129 17h60q84 0 165.5 -8.5t150 -8.5t118 8.5t85.5 8.5h64q29 0 45 -17l6 -41v-10q0 -4 -6 -28q-18 -13 -31 -20q-30 -15 -49 -30q-94 -57 -157.5 -117.5t-105.5 -101.5t-69.5 -65.5t-58 -51t-66.5 -56.5t-66 -55.5t-41 -34.5t-29.5 -27.5t-35.5 -39.5 q-40 -53 -40 -86q139 0 309 22q320 40 459 40q18 0 34.5 1t23.5 -13q18 -38 18 -48q0 -17 -31 -38h-64l-192 16q-118 0 -269 -22q-292 -44 -403 -44h-19l-58 3q-13 0 -19 1.5t-33 28.5v4q0 2 -1 2t-1 2z" />
<glyph unicode="{" horiz-adv-x="573" d="M-37 678q0 29 16.5 45t40 28.5t48 23.5t36 23.5t19.5 21.5t15 19.5t13.5 18.5t6.5 10v242q0 9 18 42q38 71 42.5 80t15 21.5t22.5 27.5t25.5 29.5t19.5 21.5t17.5 19.5t23.5 24.5q31 33 37 37q25 17 35 17l116 6q0 -45 -12 -61.5t-57 -24.5q-8 -8 -29.5 -27.5t-44 -43.5 t-43 -44.5t-35.5 -37t-35 -58t-20 -84.5t16.5 -90t16.5 -83.5t-10.5 -53.5t-23.5 -34q-34 -43 -34 -67.5t15.5 -36.5t35.5 -24q49 -29 49 -66t-18 -60.5t-40 -73.5q-56 -126 -56 -263v-6q23 -39 52.5 -71t76.5 -40q123 -25 239 -16l17 -17v-8q0 -39 -94 -69 q-188 -59 -316 63q-88 83 -88 184q0 96 9.5 126t18.5 53.5t20 49.5q22 50 32 80v9q0 29 -25.5 56.5t-43 30.5t-36 5t-39.5 5q-47 7 -63 7z" />
<glyph unicode="|" horiz-adv-x="253" d="M45 1157q2 2 2 4v19q0 86 21 233q6 23 27 23t31.5 -9.5t20.5 -37.5v-107l5 -428l14 -119q5 -34 6.5 -76.5t2.5 -63t1 -23.5v-90l-2 -128q-2 -119 -11 -234.5t-13 -232.5v-10l10 -186l2 -53q0 -16 -3 -39t-25 -22t-38 22.5t-26 52.5q-19 55 -19 119q4 143 15.5 285.5 t13.5 285.5l2 117v114q-19 25 -19 335v94q0 42 -2 63z" />
<glyph unicode="}" horiz-adv-x="671" d="M35 37q0 20 10 25.5t29 5.5h26l129 -17q12 0 43 6t36 9.5t17.5 15.5t28 27.5t29.5 31t21 21.5q18 17 18 41.5t-10.5 50t-23.5 50.5q-34 67 -34 114t20.5 82t49.5 63.5t63.5 54t61.5 58.5q-20 33 -55 43t-69 20.5t-58.5 35t-24.5 63t9 57t22.5 38t27 36t25.5 31.5t34.5 38 t43.5 46q49 57 49 98t-14.5 63.5t-38.5 35.5q-40 22 -111 36l-63 14l-119 2l-121 -2q-35 0 -35 33l2 16q4 8 16.5 20.5t16.5 12.5h320q23 -8 53 -15t59 -18q72 -26 94 -63q14 -18 25.5 -44t18 -38t6.5 -14l2 -43q0 -87 -16.5 -114.5t-42 -50t-47.5 -45.5q-58 -57 -58 -110 l2 -14v-8q4 -8 22.5 -26.5t24.5 -21.5l256 -96q18 -5 18 -33v-8q0 -4 -2 -6q-219 -51 -317 -179q-37 -48 -37 -112l2 -30q2 -4 11 -22.5t19.5 -40t20.5 -41t12 -23.5v-17q-48 -120 -129 -166q-74 -43 -206 -43h-42q-120 0 -120 66z" />
<glyph unicode="~" horiz-adv-x="835" d="M-18 240q0 127 112 239q33 33 68 66t106 33q31 0 59.5 -33t58.5 -73t62.5 -72.5t77.5 -32.5t80 27.5t65.5 65.5t58.5 76q44 58 63 58h8q23 0 30 -11.5t7 -31.5v-14q0 -7 -9.5 -16t-17.5 -17t-15.5 -14.5t-22 -23t-41.5 -53t-60 -68.5q-77 -75 -156 -75q-103 0 -198 144 q-25 37 -44 67h-30q-49 0 -81 -28.5t-51.5 -52t-32.5 -44t-29 -44.5q-42 -64 -46 -72h-22z" />
<glyph />
<glyph />
<glyph />
<glyph />
<glyph unicode="&#xa2;" horiz-adv-x="710" d="M-18 225v19l2 56v19q15 35 39 56.5t34 33t21.5 26t25 30.5t24.5 31q30 39 84 63.5t88 46.5t42 80.5t12 120t14.5 109t47.5 47.5q30 0 30 -19v-276q31 0 55.5 1t44.5 -3q41 -9 77 -58q2 -2 2 -4v-4q0 -14 -32 -21.5t-74 -21.5q-110 -37 -135 -124q-65 -234 -65 -361v-9 q14 -14 17 -14h14q117 25 248 133q37 31 57 58l17 32q6 8 24.5 25.5t21.5 20.5t5 4h4q23 0 25 -20.5t2 -37.5q0 -66 -19 -88q-70 -88 -161 -141t-143 -76.5t-71.5 -30t-23.5 -8.5q-69 -29 -65 -193q2 -101 -5.5 -130t-24.5 -29t-41 20.5t-24 34.5v8l31 256v17 q-8 16 -28.5 21t-53.5 18.5t-64.5 42t-48.5 64.5q-30 61 -30 175zM78 141.5q0 -51.5 28.5 -73t53.5 -21.5h42q15 0 19 10t8 27.5t9 37.5q19 71 23.5 104.5t6.5 46t2 16.5l2 55q0 6 -1 28.5t-1 26.5q-59 -15 -126 -112q-66 -94 -66 -145.5z" />
<glyph unicode="&#xa3;" horiz-adv-x="737" d="M-100 -16l16 32q0 4 -1 16.5t1 16.5q5 10 47 31q51 41 88 73.5t59 70.5q46 77 46 202v6q-8 17 -17 17l-192 47q-20 4 -29.5 27.5t-9.5 39.5q45 0 86 -9t72 -9q63 0 90 47q29 61 42 135t25.5 106.5t19.5 39t9 9.5t8 22.5t8 23.5l15 16q27 31 60.5 75t73.5 85q96 98 171 98 q14 0 31.5 -2t17.5 -21t-13.5 -31.5t-32 -23t-37.5 -18.5t-43 -28t-66 -66.5t-79 -99.5q-83 -123 -83 -220q0 -55 15 -93t81 -38l49 14h16l-16 -14q6 -23 31.5 -24.5t54.5 -3t52.5 -8.5t23.5 -36t-15.5 -34.5t-42.5 -5.5h-8l-80 16q-21 0 -63.5 -5t-65 -7t-32.5 -4 q-37 -55 -65 -205q-7 -37 -15 -68l-15 -47q0 -4 5.5 -10t9.5 -6l81 2l81 -2q6 0 31.5 -5.5t55.5 -10.5q68 -12 87 -17l161 -17l80 -14q18 -2 36 0t31 0q30 -5 30 -40t-17 -40l-65 -2q-66 0 -182 17q-224 34 -284 34q-146 0 -285 -66q-38 -18 -70.5 -18t-53 6.5t-20.5 34.5v9 zM240 432.5q0 -16.5 12 -16.5t12 16.5t-12 16.5t-12 -16.5z" />
<glyph unicode="&#xa4;" horiz-adv-x="747" d="M-8 918v8q0 37 31 37t53 -12.5t69.5 -33t113 -46t147 -25.5t149.5 44t127 103h16q8 -6 26 -25q22 -24 24 -30v-8l-3 -19q0 -2 -7 -16t-15 -30.5t-15 -30.5q-61 -108 -61 -316q0 -100 35 -149q12 -12 27.5 -33t24.5 -32q13 -15 14 -21v-9q0 -23 -18.5 -36t-39.5 -13h-8 q-39 18 -74 41t-70 42q-80 44 -139 44t-85.5 -10t-49 -26.5t-44 -36t-39 -30.5t-27 -17.5t-19.5 -10.5t-18 -8t-11.5 -4t-15.5 12t-16 19v6l-2 10l2 16q96 151 96 256q0 7 -5 27t-7 33.5t-4 19.5q-37 137 -113 256q0 7 -17 19q-30 22 -31 26t-1 9zM231 743l2 -14v-8l17 -33 q0 -31 16 -143v-8q0 -33 -10 -60.5t-10 -62.5q20 0 33.5 6t28.5 12q45 19 81 19q31 0 53.5 -6.5t44 -12.5t42 -12t44.5 -6q0 41 -10 79.5t-10 83.5t10 87.5t10 89.5q-37 0 -64.5 -9.5t-112 -9.5t-163.5 33z" />
<glyph unicode="&#xa7;" horiz-adv-x="540" d="M2 542q0 114 49 179q4 8 41 34.5t48 36.5t17.5 14.5t6.5 22.5t-5 33t-13 29q-17 33 -17 67.5t23.5 78.5t59.5 81q82 84 165 84q53 0 123 -18v-23q0 -44 -10.5 -51.5t-22.5 -6.5t-47 -4t-86 -28.5t-90 -77.5q-4 -6 -10.5 -24.5t-6.5 -23.5q0 -17 26 -45t60.5 -59.5 t62.5 -63.5q62 -73 62 -169q0 -90 -12 -127q-25 -78 -100 -78q0 -39 15 -72.5t15 -67.5t-16 -82t-42 -94q-65 -114 -120 -118q-12 -2 -24 -2h-39l-64 2q-23 10 -28 22.5t-5 33.5v24q90 6 150.5 47t60.5 140q0 79 -13 94.5t-32.5 25t-59.5 34t-81 64.5t-41 88zM112 564.5 q-3 -14.5 12 -32.5t38 -29q49 -24 87 -24t57.5 29t19.5 51t-2 48t-10 53q-19 67 -54 77q-9 0 -42.5 -22.5t-37.5 -25.5q-16 -12 -16 -17q-6 -8 -13.5 -23.5t-15.5 -31t-14 -27t-9 -26z" />
<glyph unicode="&#xa9;" horiz-adv-x="1308" d="M53 608q0 236 146 482q8 12 22.5 40.5t24.5 38.5q98 81 225 110q31 7 61 15q67 19 78.5 19t38.5 -3t57 -8q91 -17 113.5 -26.5t42.5 -19.5q58 -32 85.5 -45.5t60 -48t61.5 -71t55.5 -75.5t46 -64.5t36 -57.5t30.5 -68q35 -88 35 -130q0 -160 -113 -344 q-59 -94 -149 -154.5t-187 -117.5q-59 -33 -164.5 -33t-184.5 22.5t-148 63.5q-147 88 -207 236q-6 16 -17.5 43.5t-21.5 56.5t-17.5 50.5t-7.5 25.5zM166 561q0 -21 15.5 -55.5t31 -70.5t57 -92t94.5 -97q113 -86 259 -86q78 0 141 36q229 129 303 243q61 94 61 241v18 l-2 54v16q-28 14 -52 116q-12 53 -79 130.5t-121 113.5q-112 72 -276 72q-15 0 -47 -16h-49q-4 0 -22.5 -6.5t-24.5 -8.5q-122 -64 -208 -251q-81 -175 -81 -326v-31zM309 672q0 131 73 216q78 91 204 91q80 0 145.5 -30.5t95 -62.5t29.5 -75t-25 -43h-8q-64 64 -98 88 t-61 25.5t-64 1.5t-72.5 -21.5t-59.5 -55.5q-46 -65 -46 -165v-63q4 -44 68 -88q65 -47 122 -41q137 14 211 112l23 2q57 0 57 -51v-14q-2 -4 -15.5 -17.5t-17.5 -15.5q-51 -68 -110.5 -98.5t-141.5 -30.5t-138 26.5t-94 72.5q-77 93 -77 237zM2296 463v16h96v-16h-96z M2296 -801h96v-16h-96v16zM2327 0h65v-16h-65v16zM2327 -1376h65v-17h-65v17z" />
<glyph unicode="&#xad;" horiz-adv-x="755" d="M0 524q0 31 49 47h21l70 2h50l68 -2h16l111 -32l68 -2h48q31 0 86 9t87 25h24q58 0 58 -41q0 -88 -226 -88h-32l-64 17h-129l-112 16q-55 0 -95.5 1t-69 9t-28.5 39z" />
<glyph unicode="&#xae;" horiz-adv-x="1220" d="M-12 651.5q0 73.5 25.5 145t68.5 142.5t101.5 137.5t124.5 118.5q143 114 270 114l51 -2l47 -15h96q4 0 25.5 -9t35 -14t19.5 -9q180 -82 274.5 -206t94.5 -331q0 -141 -129 -311q-102 -132 -240 -240q-49 -39 -121 -60.5t-137.5 -21.5t-126.5 16.5t-117 45.5 q-79 39 -217 147q-59 44 -105 172q-40 107 -40 180.5zM100 635q0 -2 4.5 -16.5t9.5 -32t11 -34.5t14 -47t28.5 -63.5t47.5 -60.5q77 -77 253 -153q60 -25 122 -25h39q158 48 209 129q-10 35 -44 67.5t-44.5 48t-19.5 30t-20.5 30.5t-20.5 30.5t-13 18.5q-16 15 -31 31l-22 2 l-27 -2q-14 -4 -37.5 -12.5t-44.5 -15.5q-53 -17 -53 -21v-207q0 -35 -41 -35q0 2 -2 2h-12q-10 4 -25.5 16.5t-15.5 16.5v207q-25 19 -25 48t16 48l-2 137l2 135q4 47 18.5 95.5t61.5 64.5l88 2q239 0 328 -112q35 -44 35 -115q0 -137 -131 -191v-16q0 -37 50 -103 q93 -124 126 -124q22 0 44.5 33.5t34 53t17.5 30.5t17.5 32t21.5 41t18.5 35.5t8.5 17.5v92l2 89q0 33 -26 91t-58.5 103t-73.5 74q-63 43 -229 80q-9 5 -46.5 13.5t-57 13.5t-22.5 5q-18 0 -52.5 -16t-52.5 -24q-50 -19 -58 -25q-128 -59 -224 -207t-96 -291v-14zM453 700 q0 -16 16 -32h2q2 0 4 -2l6 2h4q2 2 15.5 8t32 14t62.5 21.5t84 32.5q95 43 95 124q0 54 -95 77q-55 13 -136 13h-35q-10 0 -23 -2l-32 -32v-224z" />
<glyph unicode="&#xb0;" horiz-adv-x="509" d="M1 956.5q-26 69.5 8 144t79 123t96.5 79t106.5 41t102 -7t82 -65.5t48 -153.5t-29.5 -182.5t-112.5 -109.5t-150.5 -25.5t-142 47t-87.5 109.5zM122 1020q1 -63 26.5 -90t61.5 -31t78 12.5t76 46.5q78 72 66 166t-62.5 116t-105.5 -5t-98 -89.5t-42 -125.5z" />
<glyph unicode="&#xb1;" horiz-adv-x="632" d="M-37 129q0 2 6 15q7 14 16 23t11 9h94l256 17q57 2 113.5 9t92.5 7h52q32 0 40.5 -14.5t8.5 -34.5q0 -93 -163 -84q-37 2 -102.5 2t-166 12t-211.5 6q-47 13 -47 33zM10 577q0 29 29 37.5t51 10.5l74 2l72 -2q2 2 8 7t10 17t11 41t13 60q18 82 21 114q4 4 17 10 q18 8 22 9h6q2 0 2 -1t33 -34v-6q0 -43 -9.5 -85t-9.5 -85l2 -19v-12q51 -16 80 -16h17l49 16q50 0 100 -40q13 -11 13 -21q0 -32 -19 -35l-223 -33q-4 -2 -16.5 -26.5t-15.5 -34.5t0 -26.5t5 -32.5q5 -42 -20 -56l-8 -2l-5 2h-4l-49 49l-14 96q-10 31 -16 31l-209 33 q-17 3 -17 32z" />
<glyph unicode="&#xb6;" horiz-adv-x="786" d="M10 813v59q-15 178 104 287q98 89 240 105h14l57 2h53l68 -2h17q49 0 127 -15l17 -16q2 -2 4 -27.5t5 -61.5q7 -84 7 -111v-56l2 -143v-124l-2 -148v-34q0 -44 -3 -152t-4 -189t-3 -152.5t-3 -122.5t-3 -64q-57 10 -66 56q-4 20 -2 46.5t2 62.5v105l4 638v183 q0 75 -18 198q-14 32 -83 32h-30l-31 -2q-16 -82 -16 -159v-31l-10 -127l-6 -322l-2 -172v-288l2 -172q-2 -16 -16.5 -32t-25 -16t-16.5 6.5t-6 10.5l-20 323l4 404q-171 9 -225 35t-85.5 68t-50.5 118z" />
<glyph unicode="&#xb7;" />
<glyph unicode="&#xdc;" />
<glyph unicode="&#x153;" />
<glyph unicode="&#x2000;" horiz-adv-x="724" />
<glyph unicode="&#x2001;" horiz-adv-x="1448" />
<glyph unicode="&#x2002;" horiz-adv-x="724" />
<glyph unicode="&#x2003;" horiz-adv-x="1448" />
<glyph unicode="&#x2004;" horiz-adv-x="482" />
<glyph unicode="&#x2005;" horiz-adv-x="362" />
<glyph unicode="&#x2006;" horiz-adv-x="241" />
<glyph unicode="&#x2007;" horiz-adv-x="241" />
<glyph unicode="&#x2008;" horiz-adv-x="181" />
<glyph unicode="&#x2009;" horiz-adv-x="289" />
<glyph unicode="&#x200a;" horiz-adv-x="80" />
<glyph unicode="&#x2010;" horiz-adv-x="755" d="M0 524q0 31 49 47h21l70 2h50l68 -2h16l111 -32l68 -2h48q31 0 86 9t87 25h24q58 0 58 -41q0 -88 -226 -88h-32l-64 17h-129l-112 16q-55 0 -95.5 1t-69 9t-28.5 39z" />
<glyph unicode="&#x2011;" horiz-adv-x="755" d="M0 524q0 31 49 47h21l70 2h50l68 -2h16l111 -32l68 -2h48q31 0 86 9t87 25h24q58 0 58 -41q0 -88 -226 -88h-32l-64 17h-129l-112 16q-55 0 -95.5 1t-69 9t-28.5 39z" />
<glyph unicode="&#x2012;" horiz-adv-x="755" d="M0 524q0 31 49 47h21l70 2h50l68 -2h16l111 -32l68 -2h48q31 0 86 9t87 25h24q58 0 58 -41q0 -88 -226 -88h-32l-64 17h-129l-112 16q-55 0 -95.5 1t-69 9t-28.5 39z" />
<glyph unicode="&#x2013;" />
<glyph unicode="&#x2014;" horiz-adv-x="2047" d="M0 524q0 31 133 47h57l189 2h136l184 -2h43l301 -32l184 -2h130q84 0 233 9t236 25h65q157 0 157 -41q0 -88 -612 -88h-87l-173 17h-350l-303 16q-149 0 -259 1t-187 9t-77 39z" />
<glyph unicode="&#x2018;" horiz-adv-x="258" d="M41 1333l135 -10l12 -104q-3 -20 3 -69q12 -92 7 -109t-18.5 -18t-23.5 -1l-15 2h-8q-4 4 -10 16.5t-6 20.5t-10.5 37.5t-20.5 62.5t-19.5 62.5t-9.5 42.5z" />
<glyph unicode="&#x2019;" horiz-adv-x="210" d="M27 1040l30 205l6 84h127l-20 -121q-4 -22 -20.5 -65t-23.5 -66.5t-11 -38t-17.5 -15.5t-23.5 -1l-15 2h-8q-4 4 -14 8t-10 8z" />
<glyph unicode="&#x201a;" />
<glyph unicode="&#x201c;" horiz-adv-x="524" d="M37 1323l135 -10l12 -105q-3 -20 3 -68q12 -93 6 -110q-4 -16 -17.5 -17t-23.5 -1l-15 2h-8q-4 4 -10 16.5t-6 20.5t-10.5 37.5t-20.5 62.5t-19.5 62.5t-9.5 41.5zM336 1333l135 -10l12 -104q-3 -20 3 -69q12 -92 7 -109t-18.5 -18t-23.5 -1l-15 2h-8q-4 4 -10 16.5 t-6 20.5t-10.5 37.5t-20.5 62.5t-19.5 62.5t-9.5 42.5z" />
<glyph unicode="&#x201d;" horiz-adv-x="499" d="M16 1040l17 146l20 143h127l-20 -121q-2 -13 -19.5 -60.5t-24.5 -71t-11.5 -38t-17.5 -6.5t-19 8q-14 0 -23 7l-12 4q-4 4 -10.5 -5.5t-6.5 -5.5zM352 1044q0 8 4 37t10 62q17 84 17 102l6 84h127l-20 -121q-2 -13 -20 -61q-20 -56 -30 -89.5t-23 -34.5t-24 -1l-14 2h-8 q-4 4 -14.5 8t-10.5 12z" />
<glyph unicode="&#x2022;" horiz-adv-x="444" d="M39 558q0 86 52 147t122 61t126 -46.5t56 -104.5t-19.5 -94t-51.5 -61q-62 -48 -158 -48q-58 0 -94 52q-33 46 -33 94z" />
<glyph unicode="&#x2026;" horiz-adv-x="1423" d="M-4 166q145 138 260 70l16 -9q27 -14 29 -104l-68 -117q-93 -61 -196 4q-98 55 -41 156zM586 178q145 138 260 70l16 -8q27 -14 29 -105l-68 -117q-97 -63 -196 5q-98 55 -41 155zM1130 170q146 138 263 70l16 -9q25 -14 27 -104l-66 -117q-90 -59 -182 -6l-17 10 q-98 55 -41 156z" />
<glyph unicode="&#x202f;" horiz-adv-x="289" />
<glyph unicode="&#x203a;" />
<glyph unicode="&#x205f;" horiz-adv-x="362" />
<glyph unicode="&#x20ac;" horiz-adv-x="593" d="M-117 526q-5 35 11 39q6 2 22 2h89.5t59 -5t30.5 2q17 17 13 49q-6 48 -6 83q-14 6 -46.5 5t-67.5 -1q-88 0 -88 35l-6 37q6 6 6 8v6l231 -2q46 85 129 142q60 42 148 51q30 3 44.5 -0.5t29.5 -6.5q26 -5 58 -17q83 -29 33 -56q-10 -10 -29.5 -10t-41 3l-43 6t-48 1 t-76.5 -23.5t-67 -39.5q-38 -37 -43 -58h127t62 -3q16 -5 16 -39t-8 -40t-37 -6l-184 4q-6 0 -11.5 -27.5t-5.5 -54.5l2 -37q23 0 64 3q83 5 101 1q61 -11 61 -42q0 -41 -31 -41l-43 -2l-45 -3l-47 3h-27q-12 0 -18 -3v-16q0 -50 49 -88q29 -25 77 -25h83q65 7 107 23 t53 31.5t22.5 17.5t19.5 -4q19 -13 18 -41.5t-33 -49t-74 -32.5q-84 -24 -130.5 -24t-74 -1t-69.5 17t-58.5 33.5t-36 40t-27.5 48t-11 38t-7.5 20.5t-18.5 6h-96q-81 6 -88.5 6t-14 11.5t-8.5 25.5z" />
<glyph unicode="&#x2122;" horiz-adv-x="1435" d="M-72 1033q0 24 26 38t65.5 20.5t89 7.5t96.5 3q117 5 153 33h322q4 23 24.5 23.5t49.5 0.5q92 0 157 -24q27 -6 39.5 -35t22.5 -61.5t23.5 -60.5t50 -35t65.5 31t56.5 89t64.5 94t98 43q29 0 40 -23.5t11 -46.5v-20q0 -21 -21.5 -148.5t-21.5 -209t11.5 -151t11.5 -109 t-1 -60t-22 -20.5q-51 0 -77 92q-7 22 -11 37l-18 213v84l2 86h-25q-16 -21 -26 -34t-20.5 -27.5t-19.5 -27.5t-14.5 -25.5t-11.5 -21.5q-12 -16 -45 -16t-62.5 26.5t-57 61.5t-54.5 72t-51 57l-21 -22l-2 -49l-2 -64l2 -92l2 -74l21 -106v-11q0 -23 -14.5 -27.5t-28.5 -4.5 q-29 0 -57 27q-50 51 -50 81v320h-254v-363q-8 -8 -20 -45v-18l20 -66v-10q0 -23 -14 -28t-31 -5l-12 2h-8q-4 4 -14.5 12.5t-20.5 18.5q-27 27 -28 32t-5 26.5t-7 49t-6 53t-3 40.5v58l6 232h-326q-6 0 -22 20q-25 33 -25 57z" />
<glyph unicode="&#xe000;" horiz-adv-x="819" d="M0 0v819h819v-819h-819z" />
</font>
</defs>
</svg>
